<?xml version="1.0" encoding="UTF-8"?>
<svg width="260" height="260" version="1.1" viewBox="0 0 260 260" xml:space="preserve" xmlns="http://www.w3.org/2000/svg"><title>AIdealist</title>
  <style>
    path {
      fill: #4D4D4DFF;
    }
    @media (prefers-color-scheme: dark) {
      path {
        fill: #F2F2DAFF;
      }
    }
  </style>
<path d="m67.657 32.996-38.065 66.736 42.614-2.2849zm-38.991 67.777c-0.1547-0.0115-0.29794-0.0992-0.38197-0.23459-0.0974-0.15449-0.09931-0.35093-0.0076-0.50923l39.329-68.952c0.10887-0.19263 0.32467-0.28227 0.5424-0.24222 0.21581 0.05149 0.37242 0.23268 0.3877 0.45201l4.7001 66.597c0.0096 0.13351-0.03629 0.2651-0.12223 0.36428-0.08976 0.09918-0.2139 0.16021-0.34759 0.16593l-44.032 2.3573c-0.02292 2e-3 -0.04393 4e-3 -0.06876 2e-3"/><path d="m68.627 32.6 4.5321 64.184 29.889-30.329zm4.0699 65.815c-0.04202-0.0038-0.08976-0.01335-0.13178-0.02861-0.18335-0.06675-0.3113-0.2365-0.32276-0.43103l-4.702-66.599c-0.01337-0.20598 0.09931-0.40243 0.28839-0.48634 0.18717-0.08773 0.41062-0.04959 0.55959 0.09727l35.714 35.127c0.19672 0.19263 0.20054 0.50732 8e-3 0.70377l-31.016 31.469c-0.10504 0.10681-0.25019 0.1583-0.39725 0.14686"/><path d="m73.476 97.879 31.646 26.055-1.8296-56.309zm32.139 27.634c-0.0974-8e-3 -0.1948-0.0458-0.27693-0.11252l-32.916-27.098c-0.10695-0.08964-0.1738-0.21933-0.17953-0.35856-0.0096-0.13923 0.04393-0.27464 0.14133-0.37382l31.016-31.471c0.13943-0.14304 0.35332-0.18691 0.53667-0.11443 0.18526 0.07056 0.31131 0.24985 0.31512 0.44629l1.906 58.571c3e-3 0.19455-0.1051 0.37573-0.28075 0.46155-0.0821 0.0401-0.17189 0.0572-0.26165 0.0497"/><path d="m74.359 99.897 19.16 35.953 11.388-10.806zm18.988 37.26c-0.01528 0-0.02674-5e-3 -0.04011-5e-3 -0.15279-0.0228-0.28648-0.11823-0.36096-0.25747l-20.645-38.74c-0.11268-0.2117-0.06112-0.47109 0.12223-0.61985 0.18526-0.14876 0.45073-0.15067 0.63216 0l32.918 27.098c0.10892 0.0935 0.1757 0.22504 0.18334 0.36618 6e-3 0.14304-0.0534 0.28228-0.15661 0.37955l-12.269 11.644c-0.10504 0.0973-0.24446 0.14875-0.38388 0.1354"/><path d="m183.09 54.905 24.465 27.748-0.0573-43.254zm24.925 29.564c-0.12796-0.0096-0.24637-0.06866-0.33422-0.16593l-25.724-29.179c-0.0993-0.10871-0.14133-0.25366-0.11842-0.39861 0.0191-0.14304 0.10128-0.27083 0.22345-0.34902l25.665-16.303c0.15469-0.09726 0.34951-0.10299 0.50611-0.01716 0.16042 0.08582 0.26356 0.25557 0.26164 0.43485l0.0573 45.482c2e-3 0.20598-0.12796 0.39289-0.32084 0.46536-0.0726 0.02861-0.14707 0.03624-0.21582 0.03052"/><path d="m128.38 39.316 12.131 28.868 18.111-14.638zm11.889 30.165c-0.0287-2e-3 -0.0535-0.0038-0.0802-0.0096-0.15279-0.04005-0.27883-0.14495-0.34186-0.2899l-12.888-30.676c-0.0802-0.18882-0.0345-0.41005 0.11458-0.55119 0.15088-0.14686 0.36668-0.1831 0.55767-0.09155l32.137 15.122c0.1547 0.07056 0.26165 0.21933 0.28074 0.38908 0.0229 0.16974-0.0497 0.33949-0.17953 0.44629l-19.247 15.555c-0.10127 0.0801-0.22727 0.11634-0.35333 0.1049"/><path d="m182.35 244.96 4.6944 4.9684 10.913-1.2759c-0.18526-0.88877-0.57486-2.8437-1.0409-5.5596zm4.4652 5.9849c-0.12223-9e-3 -0.23681-0.0629-0.32468-0.15257l-5.5347-5.8552c-0.13369-0.13923-0.1719-0.33377-0.10881-0.51114 0.0592-0.17929 0.21581-0.30325 0.40297-0.32614l16.012-2.056c0.2731-0.0305 0.50992 0.14685 0.55385 0.41195 0.68564 4.0224 1.2242 6.4999 1.228 6.5208 0.0325 0.13923 2e-3 0.28228-0.0822 0.3948-0.0822 0.11444-0.20626 0.18882-0.34378 0.2098l-11.707 1.3598c-0.0306 5e-3 -0.0649 8e-3 -0.0955 3e-3"/><path d="m61.897 29.191 5.2253 1.377-1.8602-3.8927c-1.1631 0.76671-2.2899 1.6078-3.3652 2.5156m6.1001 2.6282c-0.02865-2e-3 -0.0573-0.0076-0.08784-0.01526l-7.181-1.892c-0.1757-0.04386-0.31321-0.18691-0.35714-0.36428-0.04202-0.17737 0.01719-0.36619 0.1547-0.48634 1.4649-1.3026 3.0367-2.4928 4.6715-3.5341 0.12032-0.07438 0.26738-0.09918 0.40489-0.05912 0.13751 0.04004 0.2521 0.13732 0.31321 0.2632l2.5726 5.3765c0.08403 0.17546 0.0573 0.38335-0.06494 0.53212-0.10695 0.12588-0.26547 0.19263-0.4259 0.17928"/><path d="m208.49 39.817 0.0573 43.655 33.361-0.24794c-0.62069-0.63892-1.2949-1.2054-2.0149-1.686-0.15278-0.1049-0.23681-0.28227-0.21962-0.46918 0.1547-1.398 0.14897-2.8113-0.0115-4.1978-0.0744-0.62176-0.18525-1.2607-0.33613-1.9492zm-0.47937 44.652c-0.11842-0.01144-0.22728-0.05912-0.31131-0.14304-0.0936-0.09155-0.14705-0.21742-0.14705-0.35284l-0.0573-45.478c-2e-3 -0.2098 0.12604-0.3967 0.31895-0.46918 0.1948-0.07247 0.41443-0.01716 0.55384 0.13923l31.791 36.195c0.0535 0.06103 0.0917 0.13732 0.11072 0.21742 0.17571 0.77052 0.30175 1.4838 0.38197 2.18 0.16233 1.3599 0.1757 2.7464 0.0458 4.1215 0.99311 0.69995 1.9022 1.543 2.7005 2.5156 0.12225 0.14876 0.14897 0.35284 0.0649 0.5264-0.0784 0.17546-0.254 0.28608-0.44499 0.2899l-34.966 0.25938c-0.0134 0-0.0287-2e-3 -0.0419-2e-3"/><path d="m78.034 156.78 12.559 1.5677 2.2078-20.894-19.969 8.5578c1.1841 3.8431 2.9316 7.4668 5.2024 10.768m12.962 2.6224c-0.0096-2e-3 -0.0172-2e-3 -0.02292-2e-3l-13.283-1.6612c-0.13942-0.019-0.26547-0.0953-0.34759-0.20981-2.479-3.5627-4.3621-7.4821-5.5939-11.663-0.07258-0.24412 0.04966-0.49588 0.28266-0.60077l21.159-9.0594c0.16043-0.0705 0.3495-0.0497 0.49083 0.0553 0.14133 0.10487 0.21963 0.27463 0.20244 0.45201l-2.3529 22.246c-0.01337 0.13352-0.08211 0.25176-0.18716 0.33568-0.09931 0.0801-0.22345 0.11634-0.34759 0.10679"/><path d="m181.14 245.19c-0.0611-5e-3 -0.12413-0.0191-0.18143-0.0497-0.16998-0.0821-0.27502-0.25175-0.27693-0.44058l0.47364-8e-3 -0.47556-0.0839c0-0.14495 0.0592-0.30135 0.17571-0.39861 0.10701-0.0973 0.25401-0.15258 0.40298-0.1316l0.14133 0.021c0.1948 0.0343 0.35141 0.17928 0.40107 0.37381 0.0477 0.19646-0.0249 0.40053-0.18716 0.51877l-0.13369 0.10293c-0.10324 0.0725-0.22155 0.10487-0.33996 0.0954"/><path d="m70.678 33.218 33.025 32.48 8.7032-11.316zm33.035 33.726c-0.11459-0.0096-0.22345-0.05912-0.30939-0.14114l-35.714-35.127c-0.1757-0.17165-0.19862-0.44438-0.05539-0.64464 0.14324-0.19835 0.41253-0.26701 0.63025-0.15449l45.13 22.887c0.1318 0.07247 0.22537 0.19263 0.25976 0.33758 0.0324 0.14304 0 0.29562-0.0917 0.41387l-9.4136 12.239c-0.086 0.11253-0.21581 0.18119-0.35906 0.19072-0.0268 0.0038-0.0496 2e-3 -0.0764 0"/><path d="m113.3 54.853-8.5867 11.163 33.346 2.3173zm-9.5874 12.092c-0.17953-0.01526-0.33996-0.12588-0.41253-0.29181-0.0764-0.16593-0.0534-0.36047 0.0573-0.50923l9.4136-12.237c0.14897-0.19454 0.42016-0.25366 0.63408-0.13351l27.139 14.775c0.20436 0.11253 0.30368 0.35475 0.23681 0.57789-0.0649 0.22505-0.27692 0.37382-0.51183 0.35475l-36.553-2.5366z"/><path d="m117.05 32.054-3.1341 20.581 12.748-14.224zm-3.919 22.65c-0.0592-0.0038-0.1165-0.01908-0.17379-0.04577-0.19672-0.09155-0.31131-0.30706-0.27885-0.52449l3.5027-22.999c0.0249-0.16784 0.1356-0.31088 0.29029-0.37954 0.15661-0.06866 0.33614-0.0534 0.47556 0.04196l10.749 7.1006c0.12032 0.07819 0.20053 0.20598 0.21773 0.35093 0.0211 0.14304-0.0249 0.28609-0.12032 0.3948l-14.247 15.899c-0.10893 0.12016-0.26165 0.17547-0.41444 0.16211"/><path d="m113.96 54.074 25.334 13.797-12.034-28.641zm26.304 15.407c-0.0668-0.0038-0.13559-0.02098-0.19862-0.0553l-27.137-14.779c-0.13369-0.07247-0.22727-0.20217-0.25209-0.35093-0.0267-0.15067 0.0191-0.30516 0.12032-0.41768l14.249-15.897c0.11268-0.12778 0.28075-0.185 0.45264-0.16021 0.16807 0.0267 0.31131 0.14114 0.37623 0.29753l12.89 30.676c0.0822 0.19454 0.0325 0.4215-0.12413 0.56073-0.10499 0.09727-0.24256 0.13732-0.37625 0.12588"/><path d="m99.668 172.44c0.57105 0.16974 1.1478 0.32423 1.7265 0.46536l4.9981-8.4795-14.253-4.6346zm1.929 1.5353c-0.021-2e-3 -0.0477-8e-3 -0.0726-0.0153-0.78495-0.1812-1.5603-0.39481-2.3262-0.61987-0.12224-0.0362-0.22155-0.11251-0.28648-0.22123l-8.3078-13.957c-0.10504-0.17737-0.08784-0.40051 0.04202-0.56454 0.12987-0.1583 0.34377-0.22314 0.5424-0.16021l16.104 5.2334c0.14323 0.0497 0.25974 0.1564 0.31321 0.29943 0.0515 0.14114 0.04 0.29944-0.0382 0.42723l-5.5004 9.3321c-0.0955 0.16593-0.28075 0.25938-0.46982 0.24604"/><path d="m210.71 84.452 34.249 13.049 0.41253-2.59c-0.0726-0.11634-0.12223-0.24794-0.0993-0.3433 0.26738-1.3274 0.32659-2.6701 0.16807-3.9861-0.27312-2.3287-1.1898-4.5259-2.6585-6.3702zm34.603 14.228c-0.0439-0.0038-0.0936-0.01526-0.13559-0.03052l-37.297-14.209c-0.22728-0.08582-0.35906-0.31851-0.31322-0.555 0.0419-0.2365 0.24446-0.40815 0.4851-0.41006l34.964-0.26129c0.15088-2e-3 0.29413 0.06866 0.38962 0.18119 1.6768 2.0274 2.7215 4.4725 3.0271 7.0682 0.15853 1.3389 0.11268 2.6968-0.13559 4.0433 0.0726 0.10871 0.11268 0.2384 0.0936 0.34902l-0.54622 3.4044c-0.0229 0.14876-0.11072 0.27846-0.24064 0.35474-0.0898 0.05149-0.18907 0.07247-0.2903 0.06484"/><path d="m245.88 98.008 1.7342 1.7146-0.0726-2.8227c-0.4068-0.43866-0.83651-0.84681-1.2892-1.2206zm2.2269 3.4368c-0.11651-9e-3 -0.22345-0.0553-0.30749-0.14114l-2.8018-2.7674c-0.11458-0.11062-0.16807-0.27274-0.14133-0.43104l0.54622-3.4101c0.0287-0.16974 0.14323-0.31469 0.29984-0.37763 0.15852-0.06866 0.34187-0.04578 0.4832 0.0534 0.80022 0.57408 1.547 1.2492 2.2173 2.0026 0.0802 0.08773 0.12604 0.20026 0.12796 0.31851l0.11268 4.2455c5e-3 0.20217-0.11073 0.38717-0.29986 0.46918-0.0726 0.0324-0.15469 0.0457-0.23681 0.0382"/><path d="m9.1489 115.86 15.353 19.189 3.6383-34.166-18.755 3.412c-0.64744 3.5875-0.76012 7.2418-0.33804 10.86 0.021009 0.17548 0.047744 0.34903 0.074479 0.52068zm15.682 20.941c-0.1356-9e-3 -0.26165-0.0763-0.3495-0.185l-16.196-20.241c-0.055384-0.0686-0.091673-0.15448-0.10504-0.2384l-0.047744-0.3166c-0.024833-0.17928-0.053483-0.36238-0.07449-0.54738-0.44881-3.8335-0.30939-7.7033 0.40871-11.497 0.038202-0.20217 0.19862-0.35856 0.40107-0.39671l19.75-3.5951c0.15279-0.02671 0.31322 0.01907 0.42972 0.12397 0.11459 0.10871 0.17189 0.2632 0.1547 0.41959l-3.835 36.031c-0.02292 0.20025-0.16234 0.36618-0.35714 0.42531-0.06112 0.0153-0.12223 0.0228-0.17953 0.0172"/><path d="m181.68 246.61c-3e-3 1.335-0.0229 2.6434-0.0573 3.948l1.7437-0.20408zm-0.60924 5.0027c-0.11072-8e-3 -0.21582-0.0535-0.29793-0.1278-0.10691-0.0973-0.16616-0.23648-0.16043-0.38334 0.0573-2.1037 0.0802-4.1978 0.0669-6.4083-2e-3 -0.15639 0.0706-0.30326 0.20054-0.40052l0.1375-0.10293c0.12223-0.0877 0.27885-0.12396 0.42016-0.0821 0.14897 0.0382 0.27121 0.13922 0.33042 0.27655l2.7865 6.1794c0.0669 0.14304 0.0573 0.31278-0.0191 0.4501-0.0784 0.13733-0.21962 0.23078-0.37815 0.24986l-2.9908 0.34711c-0.0307 5e-3 -0.0668 5e-3 -0.0955 2e-3"/><path d="m182.99 247.08 1.4228 3.1526 1.4018-0.16592zm1.0752 4.1864c-0.17952-0.0134-0.33804-0.12206-0.41061-0.2899l-2.7903-6.1813c-0.10128-0.21742-0.0249-0.48063 0.1757-0.61794 0.20436-0.13732 0.47555-0.10487 0.64171 0.0743l5.5405 5.8533c0.12605 0.13923 0.16806 0.33567 0.10499 0.51306-0.0649 0.17355-0.22537 0.30324-0.41062 0.3223l-2.754 0.32615c-0.0325 0-0.0649 2e-3 -0.0975 0"/><path d="m248.57 98.173 0.0553 1.9454 0.84988-0.473c-0.26355-0.50732-0.56341-0.99748-0.90526-1.4724m-0.46218 3.2728c-0.0706-6e-3 -0.14324-0.0267-0.20436-0.061-0.1547-0.0877-0.24828-0.24794-0.254-0.4215l-0.11269-4.2455c-5e-3 -0.20789 0.1165-0.3967 0.31129-0.47681 0.19482-0.07819 0.41636-0.02289 0.55579 0.13351 0.90144 1.0032 1.6367 2.1018 2.181 3.2633 0.11072 0.2384 0.0191 0.52258-0.20818 0.64846l-1.9882 1.1005c-0.0879 0.0477-0.18334 0.0668-0.28074 0.0592"/><path d="m69.355 31.431 42.989 21.802-9.9637-32.143zm43.77 23.274c-0.0611-0.0038-0.12414-0.02098-0.18333-0.0515l-45.13-22.887c-0.17952-0.09155-0.28648-0.28608-0.2712-0.48825 0.01719-0.19835 0.1547-0.37 0.34759-0.43104l34.671-10.86c0.12605-0.03624 0.26165-0.02479 0.38196 0.03624 0.1165 0.06293 0.20435 0.16593 0.24255 0.29371l10.458 33.747c0.0592 0.19072-2e-3 0.39861-0.1547 0.52449-0.10128 0.08773-0.23299 0.12778-0.36287 0.11634"/><path d="m103.65 21.819 9.3506 30.171 3.1341-20.564zm9.4767 32.886c-0.20053-0.01526-0.37433-0.15067-0.43545-0.34902l-10.458-33.747c-0.063-0.20598 0.0153-0.43104 0.19099-0.5531 0.18143-0.12588 0.41826-0.12016 0.59014 0.01526l13.961 10.745c0.14324 0.11062 0.21582 0.2899 0.18907 0.46727l-3.5026 22.999c-0.0344 0.23268-0.22537 0.40433-0.45836 0.4215-0.0249 0.0038-0.0497 0.0038-0.0764 0"/><path d="m93.786 137.62-2.183 20.648 21.866-4.8482zm-2.7903 21.781c-0.10887-9e-3 -0.21199-0.0535-0.29221-0.12588-0.11841-0.1049-0.18144-0.2651-0.16425-0.42341l2.351-22.242c0.0191-0.1831 0.13751-0.33758 0.30367-0.40624 0.16998-0.0705 0.36287-0.0419 0.50611 0.0687l21.201 17.022c0.14897 0.11635 0.2158 0.3147 0.17379 0.4997-0.0439 0.1831-0.19098 0.32804-0.37815 0.37191l-23.556 5.2239c-0.04775 0.0134-0.0974 0.0153-0.14515 0.0115"/><path d="m92.922 159 14.022 4.5602 6.4858-9.1109zm14.175 5.6397c-0.0362-2e-3 -0.0764-8e-3 -0.11268-0.0228l-16.106-5.2354c-0.2139-0.0667-0.35141-0.26701-0.34377-0.49589 0.01337-0.22122 0.17189-0.41385 0.39343-0.46154l23.554-5.2258c0.20436-0.0439 0.40872 0.0401 0.52139 0.20789 0.1146 0.17547 0.11073 0.40053-9e-3 0.56646l-7.4503 10.463c-0.10127 0.14305-0.2731 0.21933-0.44691 0.20407"/><path d="m94.142 136.63 19.484 15.641-8.2066-26.341zm20.407 17.547c-0.0975-8e-3 -0.1929-0.042-0.2731-0.1087l-21.201-17.02c-0.11268-0.0897-0.17952-0.22315-0.18526-0.3681-0.0076-0.14305 0.04966-0.28036 0.15279-0.37763l12.273-11.646c0.12224-0.11825 0.30176-0.16594 0.46601-0.12016 0.16807 0.0439 0.29985 0.16974 0.35333 0.33185l8.9324 28.664c0.0649 0.2098-0.0153 0.43484-0.19862 0.56263-0.0936 0.0629-0.20819 0.0916-0.31895 0.0821"/><path d="m106.46 125.91 8.4855 27.233 42.685-4.9893zm8.092 28.271c-0.19862-0.0172-0.37242-0.15257-0.43545-0.35092l-8.9304-28.662c-0.0592-0.185-2e-3 -0.38717 0.14133-0.51876 0.14514-0.1297 0.3495-0.16594 0.53476-0.0859l53.862 23.415c0.20816 0.0897 0.32659 0.30706 0.29602 0.53021-0.0345 0.21933-0.21391 0.39671-0.43544 0.42151l-44.933 5.2468c-0.0324 5e-3 -0.0668 5e-3 -0.0993 3e-3"/><path d="m13.557 92.712 14.945 6.9213 38.344-67.226-26.686 12.037c-4.1826 4.4744-7.2173 9.9271-8.7777 15.782-0.02865 0.11252-0.09549 0.2117-0.19098 0.27846-9.3754 6.6562-15.218 17.449-15.63 28.877-0.0038 0.09727-0.03246 0.19072-0.08976 0.26701-0.66654 0.95552-1.3102 1.9854-1.9137 3.063m15.109 8.0619c-0.0573-4e-3 -0.11459-0.021-0.16807-0.0457l-15.844-7.3391c-0.12605-0.05722-0.22154-0.16402-0.26356-0.29371-0.04583-0.1316-0.03246-0.27464 0.03438-0.3948 0.67227-1.2359 1.3942-2.4126 2.1467-3.4998 0.46218-11.623 6.3961-22.591 15.896-29.404 1.6215-5.9773 4.7441-11.544 9.0317-16.107 0.04393-0.04767 0.09931-0.08582 0.16043-0.11253l28.172-12.71c0.19671-0.09155 0.43163-0.04196 0.57486 0.12016 0.14515 0.1583 0.17189 0.3948 0.06494 0.5798l-39.331 68.956c-0.0974 0.17165-0.28457 0.26511-0.47364 0.24985"/><path d="m13.078 93.588c-1.6081 3.0497-2.7807 6.2939-3.4874 9.662l17.483-3.1832zm-4.1635 10.778c-0.1165-9e-3 -0.22727-0.0572-0.31131-0.14495-0.11459-0.11634-0.16616-0.28227-0.13751-0.44247 0.7372-3.8774 2.0684-7.606 3.9591-11.077 0.12605-0.23268 0.41062-0.32995 0.64744-0.21552l15.844 7.3409c0.19671 0.08961 0.31512 0.29753 0.28457 0.51495-0.02483 0.21362-0.19098 0.38718-0.40489 0.42531l-19.75 3.5951c-0.043929 7e-3 -0.087858 7e-3 -0.13178 4e-3"/><path d="m169.37 148.68 28.069 38.652-14.979-40.748zm29.738 42.346c-0.14133-0.0115-0.27311-0.0859-0.36097-0.20407l-30.663-42.215c-0.10117-0.13732-0.1203-0.32232-0.0553-0.48252 0.0668-0.16212 0.212-0.27083 0.38197-0.29944l14.295-2.2906c0.23873-0.0362 0.46599 0.0973 0.54813 0.3185l16.364 44.505c0.086 0.23459-0.0153 0.49588-0.23492 0.61032-0.0879 0.0477-0.18143 0.0648-0.27502 0.0572"/><path d="m183.6 146.79 14.979 40.742-0.86134-36.443zm15.508 44.231c-0.18908-0.0134-0.35906-0.13733-0.4278-0.32423l-16.366-44.501c-0.063-0.17737-0.0249-0.37763 0.11073-0.51495 0.12796-0.13733 0.32467-0.19071 0.50419-0.13541l15.422 4.7013c0.20626 0.061 0.34759 0.24413 0.35141 0.46346l0.94156 39.808c5e-3 0.24032-0.16234 0.4482-0.40489 0.49588-0.0439 8e-3 -0.0878 0.0115-0.13179 8e-3"/><path d="m103.59 20.515 12.972 9.9844 14.02-20.051c-2.7616-0.80294-5.6818-1.0452-8.558-0.70758-0.17571 0.019068-0.3476 0.047675-0.51948 0.074382l-0.1547 0.024787zm13.039 11.19c-0.0936-0.0076-0.18716-0.04005-0.26356-0.10108l-13.961-10.745c-0.12986-0.10108-0.20244-0.25748-0.19289-0.4215 9e-3 -0.16402 0.10128-0.31469 0.24065-0.39861l18.464-11.102c0.0591-0.030517 0.1184-0.055304 0.18335-0.064843l0.24445-0.036236c0.18717-0.032416 0.37434-0.062933 0.56531-0.083921 3.2429-0.37954 6.5412-0.053404 9.6276 0.9479 0.15088 0.047675 0.26928 0.16593 0.31894 0.3166 0.0515 0.14876 0.0268 0.31088-0.0649 0.44438l-14.714 21.035c-0.0784 0.11253-0.19671 0.18691-0.33231 0.2098-0.0382 0.0038-0.0764 0.0038-0.11651 0"/><path d="m102.41 173.14c4.2322 0.91166 8.6249 1.131 12.955 0.63129l-8.1417-8.8zm5.0974 1.7566c-2.0092-0.16211-4.024-0.47681-5.9874-0.93836-0.1547-0.0343-0.28075-0.14303-0.34377-0.28799-0.063-0.14685-0.0515-0.31087 0.0287-0.4482l5.5004-9.334c0.0802-0.13543 0.21963-0.22316 0.37624-0.24032 0.15851-0.0171 0.31131 0.0439 0.42016 0.15448l9.2437 9.9958c0.12414 0.13351 0.16424 0.32805 0.10128 0.50161-0.0611 0.17355-0.2139 0.30133-0.39534 0.32613l-0.23109 0.0381c-0.21773 0.0305-0.43354 0.0629-0.64934 0.0916-2.6814 0.31088-5.3953 0.35666-8.0634 0.14114"/><path d="m107.78 164.1 8.793 9.5056c2.9602-0.43103 5.8575-1.1901 8.6249-2.2563l-10.63-16.776zm8.5638 10.532c-0.12413-9e-3 -0.24064-0.0687-0.32849-0.1602l-9.2418-9.992c-0.16042-0.17355-0.17762-0.43484-0.042-0.62557l7.4522-10.457c0.0955-0.14114 0.25019-0.21743 0.41825-0.21552 0.17571-0.0134 0.31894 0.0916 0.40871 0.23268l11.35 17.913c0.0802 0.12398 0.0993 0.28036 0.0535 0.41769-0.0439 0.14114-0.14896 0.25176-0.28648 0.31089-3.0901 1.2473-6.3464 2.1113-9.6753 2.5728-0.0383 5e-3 -0.0745 5e-3 -0.10893 3e-3"/><path d="m141.52 159.9c0.0172 2e-3 0.0344 2e-3 0.0497 3e-3 0.17379 0.0344 0.31895 0.15449 0.38005 0.32042 2.3816 6.5685 7.4331 11.8 13.915 14.44l3.0825-25.668-43.516 5.0866 10.705 16.887c5.7486-2.3917 10.921-6.1546 14.966-10.898 0.10323-0.12397 0.25975-0.185 0.41826-0.17165m14.723 15.958c-0.0458-3e-3 -0.086-0.0115-0.1356-0.0266-6.7781-2.5595-12.126-7.812-14.799-14.484-4.1558 4.6727-9.3869 8.367-15.183 10.705-0.22346 0.0859-0.47937 3e-3 -0.60925-0.19453l-11.35-17.915c-0.0917-0.14114-0.10127-0.32423-0.0287-0.47871 0.0726-0.15449 0.22154-0.26129 0.39343-0.28036l44.929-5.2487c0.1547-0.0191 0.30367 0.0343 0.41062 0.14494 0.10881 0.10488 0.16233 0.25748 0.14323 0.40815l-3.2315 26.936c-0.0211 0.15067-0.1069 0.28608-0.23683 0.36237-0.0917 0.0572-0.19862 0.0801-0.30175 0.0705"/><path d="m181.27 245.09c-0.0134-2e-3 -0.0249-5e-3 -0.0401-8e-3l-0.14132-0.021c-0.24256-0.042-0.41826-0.25366-0.41635-0.4997 3e-3 -0.20409 0.13178-0.45202 0.32276-0.52258 0.18526-0.0725 0.40298-0.0916 0.5424 0.0629l0.13941 0.15448c0.14517 0.1564 0.17381 0.38717 0.0745 0.57027-0.0955 0.17737-0.28457 0.27845-0.48129 0.26319"/><path d="m156.83 175.04c0.80405 0.28989 1.6119 0.53211 2.4007 0.73046 0.16617 0.0381 0.29985 0.16211 0.35333 0.32422 0.19862 0.59316 0.43353 1.1997 0.70664 1.831l7.5592-29.101-7.8858 0.10486zm3.5523 4.852c-0.17188-0.0153-0.32849-0.12207-0.4087-0.27847-0.50994-1.0375-0.92056-2.0064-1.2471-2.9448-0.86325-0.22124-1.7437-0.5016-2.6146-0.83346-0.21391-0.0801-0.34569-0.29944-0.32085-0.52449l3.2353-26.932c0.0307-0.25176 0.23874-0.44058 0.48893-0.44249l8.9725-0.11634c0.1547 5e-3 0.30176 0.0667 0.39725 0.18882 0.0975 0.12588 0.13179 0.28609 0.0917 0.43104l-8.0691 31.08c-0.0535 0.20025-0.22535 0.34711-0.43544 0.3681-0.0267 5e-3 -0.0592 5e-3 -0.0898 3e-3"/><path d="m184.75 58.297 17.149 32.32 5.4965-6.6353zm17.021 33.708h-0.0134c-0.16423-0.01716-0.31129-0.11634-0.3877-0.2632l-19.482-36.71c-0.11841-0.22505-0.0477-0.4997 0.15661-0.64274 0.20818-0.14686 0.49084-0.11253 0.66081 0.0801l25.722 29.177c0.16043 0.185 0.16615 0.45583 0.0115 0.64464l-6.2433 7.5374c-0.10498 0.12397-0.26165 0.19072-0.42397 0.17737"/><path d="m199.64 190.07 15.603 1.2988c2.3128-0.82773 4.4862-1.995 6.4668-3.4826l-22.96-35.413zm15.63 2.3001h-2e-3l-16.157-1.3465c-0.25401-0.021-0.45264-0.23077-0.45837-0.48444l-0.94155-39.806c-5e-3 -0.22124 0.13942-0.4215 0.35333-0.48826 0.21389-0.061 0.44308 0.0153 0.5653 0.20789l24.165 37.279c0.13941 0.21741 0.0955 0.50159-0.10893 0.66181-2.1906 1.705-4.618 3.0344-7.2135 3.948-0.0649 0.0228-0.13369 0.0344-0.20244 0.0286"/><path d="m198.93 150.92 23.564 36.35c0.37242-0.30705 0.7372-0.62175 1.0867-0.94599l-9.0259-43.016zm23.403 37.576c-0.0153-2e-3 -0.0287-2e-3 -0.0458-3e-3 -0.1356-0.0266-0.25592-0.10292-0.33423-0.22124l-24.165-37.281c-0.0784-0.12016-0.0993-0.26892-0.0592-0.40434 0.0381-0.13732 0.13177-0.25366 0.25973-0.31277l16.705-8.1401c0.13751-0.0687 0.29984-0.0648 0.43544-2e-3 0.14325 0.0686 0.23874 0.19455 0.27122 0.34711l9.2131 43.922c0.0345 0.16594-0.0172 0.3395-0.14516 0.46347-0.5634 0.5283-1.1631 1.0452-1.7876 1.5277-0.10127 0.0763-0.22345 0.11444-0.34759 0.10487"/><path d="m215.54 143.12 8.8961 42.396c4.2341-4.2627 6.7532-9.8508 7.1295-15.832 9e-3 -0.18309 0.12222-0.34711 0.2922-0.4234l0.1547-0.0667c0.22537-0.10293 0.45072-0.20598 0.67609-0.3147 0.42207-0.20789 0.84033-0.42721 1.2452-0.6599l8.6726-23.545zm8.5542 43.882c-0.0383-2e-3 -0.0744-0.0153-0.10882-0.0228-0.17188-0.0572-0.30175-0.19644-0.33803-0.37381l-9.215-43.922c-0.0324-0.15068 8e-3 -0.30897 0.11085-0.42341 0.0992-0.11824 0.25018-0.18118 0.40296-0.17355l28.39 1.6345c0.14324-0.0134 0.29985 0.0935 0.38961 0.22695 0.0879 0.1297 0.10498 0.29754 0.0497 0.44249l-8.9686 24.344c-0.0419 0.10869-0.11842 0.20217-0.21772 0.25939-0.47747 0.27273-0.96449 0.53592-1.461 0.78005-0.1967 0.0991-0.39533 0.18308-0.59205 0.27273-0.47173 6.4197-3.3289 12.38-8.0596 16.82-0.10498 0.0973-0.24445 0.14685-0.38195 0.13541"/><path d="m243.25 145.81-7.9507 21.578c4.9389-3.1946 8.5408-8.0008 10.227-13.682zm-8.9515 23.242c-0.10323-8e-3 -0.20053-0.0439-0.28265-0.11254-0.15852-0.13731-0.21772-0.36045-0.14515-0.555l8.9686-24.346c0.0745-0.20025 0.2712-0.33185 0.48701-0.32613 0.233 0.0153 0.40106 0.15448 0.46028 0.36237l2.7406 9.4942c0.0249 0.0916 0.0249 0.18691-3e-3 0.28036-1.8736 6.4426-6.1153 11.819-11.937 15.138-0.0879 0.0535-0.19098 0.0725-0.28838 0.0648"/><path d="m104.28 67.362 1.8239 56.168 27.322-38.208zm1.3312 58.152c-0.0343-2e-3 -0.0688-9e-3 -0.10128-0.0211-0.20625-0.061-0.3495-0.24412-0.35522-0.45774l-1.9022-58.569c-6e-3 -0.18309 0.0898-0.35665 0.24828-0.4482 0.16043-0.09155 0.35714-0.08582 0.51375 0.0076l30.388 18.731c0.11652 0.07056 0.19863 0.18691 0.22728 0.32614 0.0287 0.13351-3e-3 0.27464-0.084 0.38717l-28.487 39.836c-0.10127 0.14685-0.27311 0.22314-0.44691 0.20788"/><path d="m105.74 67.086 28.157 17.352 5.7066-15zm28.369 18.59c-0.0802-0.0058-0.1547-0.03242-0.22345-0.07247l-30.39-18.731c-0.19481-0.12016-0.28266-0.35665-0.21199-0.57598 0.0688-0.21933 0.28074-0.36047 0.50802-0.34521l36.551 2.5404c0.18144-0.01336 0.29985 0.09536 0.38579 0.22696 0.084 0.13351 0.10118 0.29753 0.0458 0.44438l-6.1612 16.192c-0.0535 0.13732-0.16425 0.24413-0.30558 0.29371-0.0649 0.02289-0.13177 0.03242-0.19863 0.0267"/><path d="m134.32 85.791-27.238 38.091 59.03-24.643zm-28.703 39.722c-0.13178-9e-3 -0.26165-0.0763-0.3476-0.18691-0.13941-0.17165-0.14514-0.41958-0.0172-0.59695l28.489-39.842c0.13752-0.18882 0.38962-0.25938 0.60161-0.16784l33.245 14.064c0.18907 0.0801 0.30748 0.25748 0.30748 0.45964 0 0.20026-0.12222 0.38145-0.30748 0.45774l-61.736 25.774c-0.0764 0.0343-0.15662 0.0458-0.23492 0.0381"/><path d="m106.93 125.03 52.202 22.69 7.6298-47.673zm52.555 23.898c-0.0553-3e-3 -0.11072-0.0153-0.16043-0.0381l-53.865-23.413c-0.18143-0.0782-0.30175-0.26129-0.29985-0.45773 2e-3 -0.19836 0.12414-0.38145 0.30749-0.45583l61.738-25.776c0.16615-0.06866 0.35905-0.04196 0.50037 0.06675 0.14324 0.11252 0.21199 0.29371 0.18334 0.47108l-7.8743 49.189c-0.0229 0.15066-0.11649 0.28418-0.25209 0.35664-0.0879 0.0477-0.18335 0.0667-0.27693 0.0572"/><path d="m134.78 84.906 30.756 13.009-25.057-27.987zm32.574 14.833c-0.0535-0.0038-0.10498-0.01526-0.15469-0.03815l-33.25-14.064c-0.24636-0.10299-0.36668-0.38526-0.2712-0.63511l6.1593-16.19c0.063-0.16402 0.20436-0.28036 0.37815-0.31279 0.16807-0.03624 0.34186 0.0267 0.46028 0.15639l27.087 30.256c0.15852 0.17356 0.17189 0.43103 0.0363 0.62176-0.10509 0.14495-0.27693 0.21933-0.44499 0.20598"/><path d="m141.02 69.046 25.584 28.574-7.4064-43.264zm26.331 30.693c-0.12414-0.01145-0.24447-0.06866-0.33423-0.16593l-27.089-30.253c-0.0898-0.10299-0.13561-0.24031-0.12414-0.37382 0.0115-0.13541 0.0744-0.26129 0.18334-0.34712l19.247-15.553c0.13369-0.11062 0.32467-0.13923 0.4851-0.07819 0.16806 0.06484 0.28838 0.2098 0.31895 0.38335l7.8437 45.808c0.0383 0.21742-0.0764 0.43485-0.27692 0.53021-0.0822 0.04006-0.16998 0.0553-0.25401 0.04958"/><path d="m167.02 104.74-6.9117 43.184 7.8781-0.10677zm-7.5344 44.183c-0.13369-9e-3 -0.25401-0.0705-0.33996-0.16976-0.0955-0.1106-0.13751-0.25937-0.11459-0.40432l7.8743-49.189c0.0402-0.25366 0.26737-0.43485 0.52522-0.41959 2e-3 2e-3 5e-3 2e-3 8e-3 2e-3 0.25209 0.02099 0.45072 0.23078 0.45454 0.48634l1.1001 49.071c2e-3 0.13161-0.0458 0.25941-0.13751 0.35858-0.0936 0.0935-0.21963 0.14685-0.35523 0.15067l-8.9725 0.11633c-0.0172 0-0.0287 0-0.042-2e-3"/><path d="m167.97 102.58 1.0122 45.15 13.153-2.1056zm0.48701 46.229c-0.10128-8e-3 -0.20054-0.0458-0.28074-0.11253-0.10893-0.0935-0.17762-0.22886-0.17762-0.37l-1.1001-49.071c-3e-3 -0.24794 0.16807-0.45964 0.41444-0.5016 0.23873-0.04578 0.47937 0.10108 0.55768 0.33376l15.395 46.782c0.0419 0.14114 0.0267 0.288-0.0497 0.41578-0.0764 0.12588-0.20243 0.2098-0.34759 0.22887l-14.293 2.2887c-0.0419 9e-3 -0.0802 9e-3 -0.1184 5e-3"/><path d="m160.15 53.968 7.4026 43.241 14.098-41.955zm7.2059 45.772c-0.22727-0.01907-0.41252-0.19072-0.45073-0.41387l-7.8456-45.808c-0.0267-0.14876 0.0211-0.30325 0.12032-0.41578 0.10498-0.11253 0.25018-0.17356 0.40106-0.16402l22.779 1.3618c0.1375-0.01336 0.29792 0.08964 0.38578 0.21742 0.084 0.12778 0.10893 0.29181 0.0592 0.43866l-14.937 44.444c-0.0707 0.21933-0.27121 0.36047-0.51184 0.33949"/><path d="m182.43 56.055-14.284 42.508 32.916-7.3962zm-15.078 43.683c-0.12605-0.0096-0.24255-0.06866-0.33041-0.16402-0.12032-0.13351-0.15852-0.32042-0.10498-0.49016l14.937-44.446c0.063-0.18882 0.23301-0.32232 0.43354-0.33567 0.20054-0.02479 0.3877 0.08582 0.48319 0.2632l19.477 36.71c0.0764 0.13732 0.0784 0.30134 0.0134 0.44057-0.0649 0.13923-0.19098 0.24413-0.34378 0.27846l-34.417 7.7319c-0.0477 0.01145-0.10127 0.01526-0.14706 0.01145"/><path d="m66.107 26.132 2.0512 4.2894 7.2555-8.3651c-3.2868 0.91166-6.4095 2.2772-9.3067 4.0758m1.8908 5.6874c-0.0096 0-0.0191-2e-3 -0.02482-0.0038-0.16616-0.02289-0.31321-0.12588-0.38579-0.27846l-2.5726-5.3765c-0.10695-0.22505-0.03056-0.49779 0.18335-0.6332 3.537-2.2543 7.414-3.8831 11.522-4.8291 0.20818-0.04767 0.42781 0.04387 0.53858 0.22887 0.10886 0.185 0.09167 0.41959-0.05157 0.5817l-8.7929 10.139c-0.10504 0.12016-0.25783 0.185-0.41635 0.17165"/><path d="m77.101 21.632-7.5363 8.6894 32.683-10.232 0.69901-6.5475c-0.678 0.04004-1.3694 0.10299-2.0588 0.18309-6.3312 0.7381-12.364 3.1469-17.446 6.9671-0.0764 0.06103-0.17189 0.09536-0.2712 0.10108-0.76012 0.04006-1.5126 0.09536-2.2746 0.18309-1.2299 0.14686-2.5057 0.36619-3.7949 0.65609m-9.1043 10.187c-0.14897-0.01144-0.28839-0.09345-0.37433-0.22505-0.12414-0.185-0.10695-0.42913 0.04011-0.59696l8.791-10.139c0.06876-0.0801 0.16234-0.13732 0.26738-0.1583 1.3751-0.31851 2.7425-0.55691 4.0584-0.7114 0.73338-0.08582 1.4591-0.13923 2.1849-0.18309 5.1967-3.8736 11.35-6.3187 17.809-7.072 0.91292-0.1049 1.8239-0.17737 2.712-0.21361 0.14324-0.01336 0.28266 0.04958 0.38197 0.15639 0.0994 0.1049 0.14897 0.24794 0.13369 0.39098l-0.79641 7.4516c-0.021 0.19835-0.15661 0.36428-0.34568 0.4215l-34.671 10.858c-0.06303 0.01908-0.12605 0.02671-0.19098 0.02098"/><path d="m103.96 13.495-0.64362 6.0269 14.956-8.9907c-2.4198 0.72666-4.7001 1.8729-6.7131 3.3758-0.10881 0.08201-0.24065 0.11443-0.38198 0.09345-2.3739-0.41006-4.8071-0.5798-7.2173-0.50542m-1.2872 7.4668c-0.0783-0.0076-0.15661-0.03242-0.22536-0.07629-0.16234-0.10299-0.2502-0.28609-0.22919-0.4749l0.79449-7.4496c0.0287-0.24412 0.22919-0.43103 0.47748-0.44248 2.5458-0.10871 5.1241 0.04577 7.6432 0.46346 2.9164-2.138 6.3579-3.557 9.9713-4.1101 0.23299-0.038146 0.46218 0.099179 0.5443 0.32232 0.0802 0.22505-8e-3 0.4749-0.21199 0.59887l-18.468 11.098c-0.0898 0.05722-0.1929 0.07629-0.29603 0.07056"/><path d="m23.42 140.34c5.2215 3.9804 11.398 6.4998 17.89 7.3104l6.186-0.59695-22.393-10.097zm17.844 8.3079c-0.0076-2e-3 -0.01528-2e-3 -0.02101-2e-3 -6.8258-0.84299-13.312-3.5265-18.757-7.7701-0.18716-0.14305-0.24446-0.40243-0.13942-0.61032l2.076-4.1787c0.12032-0.24031 0.4068-0.34522 0.65126-0.2365l24.536 11.062c0.20626 0.0935 0.32276 0.31087 0.28648 0.53594-0.03629 0.21933-0.21963 0.39097-0.44118 0.41385l-8.1035 0.78769c-0.02865-2e-3 -0.06112 0-0.08785-2e-3"/><path d="m42.809 148.81c-0.52521-0.042-1.0485-0.0972-1.568-0.16022-0.25019-0.0305-0.43926-0.24793-0.43736-0.49969 0.0038-0.25556 0.19862-0.46726 0.45072-0.49207l8.1035-0.78576c0.17189-0.0115 0.33613 0.0572 0.44118 0.19263 0.10312 0.1335 0.13178 0.31087 0.07447 0.47107l-0.33995 0.93264c-0.06685 0.185-0.233 0.31279-0.42781 0.32805-2.1027 0.17737-4.2227 0.18119-6.2968 0.0134"/><path d="m25.403 136 23.023 10.375-19.421-44.187zm23.961 11.861c-0.05539-5e-3 -0.11077-0.0191-0.16425-0.0419l-24.536-11.06c-0.1948-0.0897-0.31322-0.29181-0.2903-0.50923l3.8369-36.03c0.02482-0.22505 0.19862-0.40433 0.42017-0.43866 0.22918-0.03052 0.44118 0.08391 0.53476 0.29372l20.697 47.091c0.08022 0.19072 0.04011 0.41005-0.10695 0.55119-0.10504 0.10487-0.24828 0.15448-0.39152 0.14304"/><path d="m29.453 100.74 19.967 45.43 22.511-47.706zm19.912 47.13c-0.18144-0.0153-0.34377-0.12968-0.41635-0.29752l-20.699-47.091c-0.06494-0.14685-0.05348-0.32231 0.03246-0.45964 0.08595-0.14113 0.23682-0.22886 0.39916-0.23649l44.03-2.3573c0.1738-0.0096 0.34186 0.07438 0.43926 0.21742 0.09931 0.14876 0.11268 0.33186 0.0382 0.49016l-23.335 49.449c-0.08212 0.17547-0.26165 0.29181-0.45646 0.28799-0.0096 0-0.02292-2e-3 -0.03246-2e-3"/><path d="m49.123 148.79c-0.14897-0.0134-0.31322-0.0763-0.39725-0.19073-0.10504-0.1316-0.18716-0.30707-0.12987-0.46918l0.33995-0.92882c0.06876-0.19072 0.24255-0.31851 0.445-0.32805 0.19671-8e-3 0.38579 0.10293 0.47173 0.28036l0.41826 0.86398c0.07258 0.14686 0.06684 0.31852-0.01337 0.46155-0.07831 0.13923-0.22154 0.2346-0.38197 0.24985l-0.65699 0.061c-0.03056 2e-3 -0.06303 2e-3 -0.09548 0"/><path d="m71.909 142.4c0.18335 0.89449 0.39916 1.7794 0.64171 2.6453l15.137-6.4865zm0.27884 3.8221c-0.06112-5e-3 -0.11841-0.0228-0.17189-0.0477-0.12987-0.059-0.22727-0.17165-0.26738-0.30897-0.35714-1.2149-0.66654-2.4737-0.91291-3.7382-0.04966-0.26129 0.11268-0.51877 0.37242-0.5817l22.059-5.365c0.25592-0.0667 0.51184 0.0801 0.59205 0.32232 0.08212 0.24412-0.03629 0.51495-0.27693 0.61603l-21.159 9.067c-0.07449 0.0305-0.15661 0.042-0.23491 0.0362"/><path d="m59.273 145.48-9.1463 2.2276 0.12987-0.0134c3.115-0.36047 6.1325-1.1081 9.0164-2.2143m-9.49 3.248c-0.1738-0.0134-0.33231-0.11634-0.4068-0.27655l-0.42017-0.86588c-0.06685-0.1354-0.06685-0.29181-2e-3 -0.42721 0.06303-0.13352 0.18526-0.2346 0.33231-0.27083l14.664-3.5704c0.23682-0.0591 0.49274 0.0705 0.58441 0.30135 0.08976 0.23459-0.0096 0.49779-0.22727 0.61793-4.3182 2.3745-9.0088 3.8717-13.936 4.4496l-0.50038 0.0419c-0.02865 5e-3 -0.05921 3e-3 -0.08785 0"/><path d="m72.765 99.03-22.464 47.606 13.585-3.3072c2.3682-1.3064 4.597-2.8818 6.6272-4.6708 0.14133-0.12588 0.33614-0.1564 0.50802-0.0916 0.1738 0.0648 0.29794 0.22314 0.31895 0.40624 0.08784 0.75336 0.21008 1.5582 0.37624 2.4489l20.928-5.0942zm-23.399 48.835c-0.1356-0.0115-0.25974-0.0763-0.34759-0.185-0.12223-0.14685-0.14706-0.34902-0.06303-0.52448l23.333-49.449c0.08021-0.16974 0.25019-0.28036 0.43736-0.28418 0.19098-2e-3 0.36669 0.09727 0.45263 0.26511l20.647 38.74c0.07449 0.1335 0.07831 0.29562 0.01528 0.43484-0.06112 0.14495-0.18717 0.24603-0.33613 0.28228l-22.061 5.3669c-0.12987 0.0344-0.26929 0.0134-0.38579-0.0629-0.11459-0.0705-0.1948-0.18691-0.22154-0.32042-0.14897-0.75907-0.26738-1.4571-0.36478-2.1189-1.9098 1.6021-3.9782 3.0268-6.1631 4.2245-0.0382 0.0228-0.0783 0.0381-0.12223 0.0497l-14.664 3.5684c-0.05157 0.0134-0.10695 0.0172-0.15661 0.0134"/><path d="m117.41 31.106 9.7727 6.4579 11.348-27.289c-1.4152 0.35856-2.7903 0.85444-4.0947 1.4876-0.13943 0.06675-0.29794 0.06485-0.43736 0-0.0172-0.0096-0.0325-0.01716-0.0497-0.02289zm9.9618 7.7014c-0.0822-0.0058-0.16234-0.03243-0.23491-0.0801l-10.747-7.1025c-0.11651-0.07629-0.19863-0.20217-0.21772-0.34521-0.0191-0.14114 0.0229-0.28418 0.11649-0.39289l17.141-20.076c0.14324-0.16974 0.38387-0.22124 0.58442-0.12969l0.14895 0.06293c0.0153 0.0076 0.0325 0.01526 0.0497 0.02098 1.6024-0.75336 3.3002-1.3179 5.0477-1.6803 0.17952-0.034337 0.36669 0.028607 0.48319 0.16974 0.12032 0.14304 0.14897 0.33758 0.0784 0.50732l-11.948 28.74c-0.0592 0.13732-0.17379 0.24222-0.31703 0.28418-0.0592 0.01908-0.12222 0.02671-0.18525 0.02098"/><path d="m131.58 10.764-8.5829 12.273 10.008-11.716c-0.48701-0.21361-0.95875-0.3948-1.4248-0.55691m-14.948 20.941c-0.0936-0.0076-0.18525-0.04006-0.26355-0.10108-0.212-0.16212-0.25784-0.45964-0.10324-0.67898l14.713-21.037c0.12414-0.18119 0.34951-0.2632 0.5615-0.18882 0.80786 0.2632 1.6196 0.58552 2.4847 0.98413 0.14133 0.06675 0.24255 0.19263 0.27883 0.34521 0.0307 0.15258-8e-3 0.31088-0.1069 0.43103l-17.145 20.074c-0.10892 0.12778-0.26548 0.185-0.42017 0.17165"/><path d="m208.69 38.243 8.7567 3.6009c-1.5833-2.8971-4.1482-5.2067-7.2173-6.4827zm9.7402 5.058c-0.0515-0.0058-0.10117-0.01716-0.14897-0.03815l-10.481-4.3084c-0.12795-0.0534-0.22917-0.1583-0.27502-0.29181-0.0515-0.1316-0.0401-0.28036 0.0267-0.40433l2.0053-3.7553c0.11841-0.22505 0.37814-0.3166 0.61498-0.23268 3.9094 1.4838 7.0989 4.5201 8.7547 8.3346 0.0822 0.185 0.042 0.40243-0.10128 0.54738-0.10303 0.10681-0.25209 0.16021-0.39533 0.14876"/><path d="m209.77 39.764 28.89 32.888c-1.5317-4.1864-4.5378-7.7319-8.4874-9.9271-0.15278-0.08582-0.25019-0.24794-0.25783-0.42531-0.0134-0.55691-0.0497-1.1195-0.1165-1.686-0.75821-6.477-4.7498-11.998-10.68-14.76-0.14133-0.06675-0.24064-0.19263-0.27502-0.33949-0.17953-0.78197-0.43354-1.5639-0.75248-2.3287zm29.973 35.423c-0.12607-0.01144-0.24638-0.06866-0.33232-0.16974l-31.791-36.195c-0.15659-0.17546-0.16997-0.42913-0.0325-0.61794 0.13369-0.18882 0.37624-0.25557 0.59397-0.17165l10.479 4.3103c0.12032 0.04959 0.21772 0.14304 0.26737 0.26129 0.34951 0.80485 0.62643 1.6288 0.82888 2.4527 6.1268 2.9429 10.244 8.6951 11.033 15.443 0.0592 0.49969 0.0975 0.99748 0.11459 1.4934 4.7288 2.7178 8.1321 7.2875 9.3659 12.584 0.0515 0.22124-0.0553 0.45011-0.25783 0.555-0.084 0.04387-0.17761 0.06103-0.26929 0.0553"/><path d="m14.008 129.79c2.2479 3.7706 5.1891 7.1636 8.6115 9.9252l1.61-3.2347zm8.7452 11.192c-0.0974-8e-3 -0.18908-0.0439-0.26738-0.10488-4.2685-3.3243-7.8457-7.606-10.346-12.386-0.10504-0.19836-0.06111-0.4482 0.10886-0.59888 0.16807-0.15258 0.41826-0.17164 0.60542-0.0458l12.29 8.0447c0.20817 0.13731 0.28266 0.41195 0.17189 0.63701l-2.0779 4.1788c-0.06494 0.13159-0.18907 0.22886-0.33422 0.26319-0.04966 0.0134-0.10122 0.0172-0.15088 0.0115"/><path d="m12.962 127.92 9.5683 6.2595-13.052-16.309c0.67418 3.515 1.843 6.887 3.4836 10.049m11.868 8.8858c-0.08211-5e-3 -0.16234-0.0343-0.233-0.0801l-12.288-8.0447c-0.07258-0.0458-0.13178-0.1087-0.16998-0.18691-2.0168-3.8469-3.348-8.0046-3.9591-12.353-0.030561-0.22315 0.091673-0.44058 0.29794-0.52831 0.20626-0.0897 0.4469-0.0266 0.58441 0.14686l16.196 20.24c0.1547 0.19073 0.14324 0.46346-0.02101 0.64655-0.10504 0.11635-0.25783 0.17356-0.4068 0.16022"/><path d="m188.72 35.475-5.5176 18.182 23.457-14.903zm-6.4266 19.82c-0.0936-0.0076-0.18334-0.04386-0.26164-0.10299-0.16616-0.12588-0.23682-0.34139-0.1738-0.53784l6.0332-19.891c0.0744-0.24222 0.31703-0.3948 0.56721-0.34712l19.631 3.5875c0.20054 0.03624 0.35905 0.19454 0.40107 0.3948 0.0363 0.19835-0.0535 0.40243-0.22537 0.51304l-25.663 16.305c-0.0955 0.05721-0.20433 0.08582-0.30939 0.07819"/><path d="m187.35 21.955 1.4381 12.281 11.31-3.8812c-2.309-4.9798-7.2097-8.245-12.748-8.3994m0.97592 13.448c-0.0802-0.0058-0.15659-0.03052-0.22535-0.07438-0.12795-0.08201-0.2139-0.21361-0.2311-0.36428l-1.6062-13.738c-0.0268-0.22505 0.0993-0.43485 0.30749-0.51877 0.20625-0.08201 0.44498-0.01716 0.58058 0.1583l0.0745 0.08964c6.1879 0.11253 11.625 3.8412 14.009 9.5018 0.0553 0.12588 0.0515 0.26892-3e-3 0.3967-0.0592 0.12397-0.16234 0.21933-0.2922 0.26701l-12.41 4.2569c-0.0669 0.02098-0.13561 0.03052-0.20246 0.0248"/><path d="m193.04 35.254 14.683 2.6854 1.5642-2.9333c-0.26356-0.08964-0.53093-0.17356-0.80022-0.24603zm14.914 3.7363c-0.0172-2e-3 -0.0345-0.0038-0.0515-0.0076l-19.628-3.5875c-0.25019-0.04577-0.42398-0.27273-0.40489-0.5264 0.0191-0.25176 0.22536-0.45011 0.47937-0.45964l20.178-0.64653c0.0497-0.0038 0.0993 0.0058 0.14706 0.01526 0.47937 0.12778 0.97211 0.28799 1.503 0.49207 0.13178 0.05149 0.24064 0.15448 0.28839 0.29181 0.0477 0.1316 0.0419 0.28036-0.0287 0.40624l-2.0015 3.7572c-0.0936 0.17928-0.28647 0.28036-0.48128 0.26511"/><path d="m200.49 31.272-8.833 3.0306 9.5913-0.30706c-0.15851-0.90784-0.41253-1.8195-0.75822-2.7235m-12.166 4.1311c-0.22153-0.01716-0.4106-0.18309-0.45072-0.40624-0.0439-0.24222 0.0936-0.48062 0.32659-0.56263l12.412-4.255c0.24445-0.08582 0.52138 0.03625 0.6207 0.27846 0.41825 0.98986 0.72955 2.0007 0.932 3.0077 0.22727-0.04195 0.45645-0.07819 0.68945-0.10681 1.9557-0.22696 3.9343-0.08392 5.8193 0.41959 0.23682 0.06293 0.39153 0.29181 0.36669 0.53784-0.0307 0.24603-0.23491 0.43294-0.48129 0.44248l-20.181 0.64655c-0.0172 2e-3 -0.0345 0-0.0535-2e-3"/><path d="m139.72 10.007-11.528 27.724 45.617-4.7337-19.501-20.713c-3.9553-2.1723-8.4606-3.0535-12.958-2.529-0.52522 0.059124-1.0752 0.14686-1.6291 0.25175m-12.349 28.801c-0.14323-0.01144-0.27119-0.08201-0.35713-0.19835-0.1051-0.14114-0.12988-0.32614-0.063-0.48825l11.95-28.74c0.063-0.15258 0.19862-0.2632 0.36095-0.29753 0.67037-0.13541 1.3331-0.24413 1.971-0.32042 4.6887-0.54165 9.3965 0.37 13.522 2.632 0.0764 0.02289 0.14896 0.06675 0.20435 0.12397l20.265 21.531c0.1318 0.13732 0.17189 0.33567 0.10691 0.51304-0.0669 0.17737-0.22919 0.30134-0.41636 0.32232l-47.452 4.9207c-0.0305 0.0058-0.0611 0.0058-0.0917 2e-3"/><path d="m129.25 38.621 30.153 14.192 14.372-18.809zm30.265 15.311c-0.0591-0.0058-0.11649-0.02098-0.17379-0.04768l-32.135-15.122c-0.20053-0.09727-0.31512-0.31279-0.27884-0.53402 0.0381-0.22124 0.21773-0.38908 0.44117-0.41196l47.45-4.9207c0.19482-0.02289 0.38962 0.07819 0.4851 0.24985 0.0975 0.17356 0.084 0.38908-0.0343 0.54738l-15.319 20.043c-0.10498 0.13923-0.27119 0.2098-0.43544 0.19644"/><path d="m155.5 12.095 18.955 20.133 1.3293-17.131c-2.4408-1.1367-5.1356-1.5773-7.8094-1.2626-5e-3 0-0.23299 0.04005-0.24445 0.04387-0.11268 0.01526-0.23491-0.01336-0.33232-0.07629-2.8113-1.7947-6.2089-2.5824-9.5359-2.1933-0.78114 0.09155-1.5775 0.25557-2.3625 0.48634m19.324 21.788c-0.12032-0.0096-0.23682-0.06293-0.32468-0.15449l-20.265-21.527c-0.11841-0.12397-0.16234-0.29562-0.12032-0.46155 0.0381-0.16212 0.15851-0.29562 0.31704-0.35093 1.0982-0.37954 2.2135-0.64083 3.3174-0.77243 3.4912-0.40433 7.0531 0.40052 10.023 2.2429l0.0898-0.01526c2.9756-0.34521 5.9759 0.17547 8.6688 1.5067 0.17953 0.08773 0.2903 0.28036 0.27502 0.48444l-1.4458 18.59c-0.0134 0.19835-0.14324 0.3681-0.33041 0.43294-0.0649 0.02098-0.13559 0.03052-0.20435 0.02479"/><path d="m174.7 34.426-14.184 18.569 21.098 1.2588zm-15.189 19.505c-0.18143-0.01526-0.33804-0.12588-0.41443-0.2899-0.0784-0.16784-0.0515-0.36428 0.0553-0.50923l15.319-20.047c0.11072-0.14495 0.28075-0.22696 0.47364-0.18691 0.18334 0.02861 0.33423 0.15448 0.39153 0.32804l7.4637 21.407c0.0573 0.15639 0.0267 0.33186-0.0726 0.46346-0.10128 0.13351-0.26164 0.20598-0.42781 0.19835l-22.781-1.3618c-2e-3 0-3e-3 -2e-3 -8e-3 -2e-3"/><path d="m175.6 33.972 6.6998 19.217 5.4182-17.854zm6.6921 21.323c-0.19671-0.01716-0.36478-0.14686-0.42971-0.33567l-7.4656-21.407c-0.0535-0.16212-0.0249-0.33758 0.0822-0.47299 0.10892-0.13351 0.26547-0.19835 0.445-0.185l13.503 1.5162c0.14514 0.01907 0.27883 0.10108 0.35905 0.22505 0.0784 0.12206 0.1051 0.27464 0.0611 0.41387l-6.0389 19.892c-0.0611 0.20598-0.24829 0.34902-0.466 0.35284-0.0172-2e-3 -0.0325 0-0.0497 0"/><path d="m175.4 32.949 12.397 1.3923-1.5183-12.977c-2.1792-2.7731-5.2559-4.6613-8.6822-5.3174-0.0591-0.01336-0.11649-0.03625-0.16998-0.07056-0.21963-0.13732-0.44689-0.27083-0.67608-0.3948zm12.928 2.4546c-5e-3 0-0.0115-2e-3 -0.0172-2e-3l-13.501-1.5182c-0.26737-0.02861-0.46219-0.2651-0.44118-0.53402l1.4477-18.59c0.0134-0.16593 0.107-0.31279 0.25209-0.3948 0.13942-0.08201 0.31704-0.08773 0.4641-0.01335 0.52521 0.25748 0.95302 0.49206 1.3445 0.73428 3.6726 0.72856 6.9614 2.7769 9.2742 5.777 0.0573 0.07056 0.0898 0.1583 0.10128 0.24603l1.61 13.742c0.0191 0.15067-0.0362 0.29944-0.14324 0.40815-0.10127 0.10108-0.24637 0.15639-0.39151 0.14495"/><path d="m160.95 179.33c1.8698 3.7134 4.6486 6.908 8.0519 9.2558 0.0611 0.0439 0.11459 0.0991 0.15278 0.16975 2.6394 4.7452 4.9102 10.082 6.7513 15.866l18.245-5.5367 8e-3 -0.10107-25.512-49.292zm14.591 26.409c-0.19861-0.0172-0.37623-0.14876-0.43734-0.34902-1.8354-5.8647-4.1081-11.264-6.7647-16.053-3.5485-2.4718-6.44-5.8342-8.367-9.7288-0.0515-0.1087-0.063-0.23078-0.0325-0.3452l8.071-31.08c0.0497-0.19835 0.22154-0.34521 0.4278-0.36619 0.20818-0.0172 0.40299 0.0839 0.49847 0.26511l26.173 50.574c0.0419 0.0801 0.0611 0.17356 0.0535 0.26701l-0.0439 0.57598c-0.0134 0.20789-0.15278 0.38145-0.35332 0.43867l-19.041 5.7827c-0.0611 0.0172-0.12222 0.0248-0.18334 0.0191"/><path d="m176.2 205.57c3.3002 10.734 5.1241 22.91 5.4278 36.236l12.429-41.309c2e-3 -0.10292 8e-3 -0.21933 0.0153-0.34903zm5.0687 39.518c-0.12222-0.0115-0.23872-0.0687-0.32468-0.16402l-0.14131-0.14875c-0.084-0.0916-0.13179-0.21172-0.13179-0.33187-0.11458-14.463-1.9901-27.6-5.571-39.054-0.0419-0.12589-0.0267-0.26322 0.0362-0.38145 0.0591-0.11254 0.16425-0.20408 0.29411-0.24222l19.041-5.7789c0.15661-0.0497 0.32659-0.0172 0.45837 0.0897 0.12606 0.10107 0.19671 0.26129 0.18143 0.42531-0.0249 0.38717-0.0535 0.78006-0.0784 1.171l-13.245 44.063c-0.0515 0.17165-0.19098 0.29754-0.36669 0.33759-0.0497 0.0115-0.10128 0.0191-0.15279 0.0153"/><path d="m171.97 153.95 22.347 43.18c0.21963-2.2925 0.51374-4.4877 0.86516-6.5475 0.0306-0.15448 0.12987-0.288 0.26737-0.35665 0.14134-0.0744 0.30749-0.0783 0.44692 0 0.73529 0.36238 1.5088 0.69613 2.3606 1.0108l0.31131-0.65608zm22.653 45.43c-0.17189-0.0153-0.32468-0.11253-0.40299-0.26701l-26.174-50.576c-0.12032-0.22697-0.0382-0.51306 0.17953-0.65039 0.22153-0.13731 0.51374-0.0801 0.66844 0.13161l30.657 42.215c0.10689 0.14876 0.12604 0.3433 0.0477 0.50731l-0.6398 1.3313c-0.10882 0.22886-0.37242 0.34711-0.61496 0.25366-0.81934-0.28991-1.5737-0.59505-2.2861-0.92311-0.37814 2.3039-0.67608 4.7833-0.88616 7.3657 0.0115 0.0515 0.0172 0.10487 0.0134 0.1583-0.0211 0.27655-0.28266 0.42721-0.55004 0.45392z"/><path d="m193.85 204.66-11.837 39.337 14.734-1.8901c-1.3617-8.1439-3.3499-22.87-2.8973-37.447m-12.576 40.428c-0.12796-0.0115-0.25401-0.0725-0.33996-0.17356-0.10881-0.12969-0.14324-0.30516-0.0955-0.46537l13.222-43.952c0.0726-0.24223 0.30175-0.38336 0.56722-0.34714 0.25019 0.0458 0.4259 0.26893 0.41062 0.52259-1.0352 16.042 1.2987 33.064 2.7769 41.78 0.0249 0.13542-8e-3 0.27082-0.0898 0.37763-0.0784 0.1087-0.20054 0.17929-0.33613 0.20026l-16.01 2.0541c-0.0345 5e-3 -0.0707 5e-3 -0.10509 3e-3"/><path d="m199.21 191.57c1.8697 0.61795 3.7968 1.0108 5.741 1.1672 1.5966 0.1316 3.2143 0.0991 4.8147-0.0859 0.96065-0.11253 1.9098-0.28037 2.8476-0.4997l-13.155-1.0986zm5.6608 2.1609c-2.2116-0.18119-4.4079-0.65227-6.5183-1.4018-0.1337-0.0458-0.24065-0.14877-0.29604-0.27846-0.0515-0.1316-0.0458-0.27845 0.0134-0.40625l0.63598-1.3293c0.0898-0.18691 0.28457-0.29752 0.49083-0.28227l16.157 1.3465c0.23491 0.0191 0.42398 0.20026 0.45263 0.43294 0.0305 0.23269-0.10701 0.45583-0.3285 0.53212-1.801 0.63511-3.686 1.0738-5.5978 1.295-1.6616 0.19453-3.3499 0.22505-5.0095 0.0916"/><path d="m78.822 157.88c1.3025 1.7642 2.7483 3.4178 4.3144 4.9378l6.3464-3.599zm4.1978 6.0478c-0.11268-9e-3 -0.21963-0.0553-0.30367-0.13923-1.9901-1.8862-3.7968-3.9899-5.3743-6.2576-0.11077-0.16401-0.1165-0.37763-0.01528-0.54356 0.09931-0.16783 0.30367-0.23268 0.48701-0.23649l13.283 1.6631c0.2139 0.0286 0.38388 0.18881 0.4259 0.39669 0.04202 0.21362-0.05539 0.42722-0.24064 0.53213l-7.9755 4.5201c-0.08976 0.0497-0.19098 0.0725-0.28648 0.0648"/><path d="m83.895 163.52c4.1234 3.7858 9.0489 6.6925 14.349 8.4643l-7.3873-12.408zm15.405 9.828c-0.03241-2e-3 -0.06876-8e-3 -0.10128-0.0172-6.1325-1.8252-11.832-5.1286-16.482-9.5514-0.1165-0.10679-0.17189-0.26319-0.1547-0.41768 0.02101-0.1583 0.11459-0.29562 0.2521-0.37191l7.9717-4.5201c0.23491-0.13541 0.53667-0.0572 0.678 0.17737l8.3059 13.953c0.1051 0.17546 0.08979 0.40051-0.03635 0.56073-0.1051 0.13159-0.26738 0.20215-0.43354 0.1869"/><path d="m168.21 100.13 14.82 45.043 30.703-25.633zm14.534 46.39c-0.0307-2e-3 -0.0649-9e-3 -0.0936-0.0191-0.16042-0.0401-0.28838-0.16785-0.33804-0.32042l-15.395-46.782c-0.0591-0.18691-8e-3 -0.39098 0.13751-0.52258 0.14514-0.13351 0.3495-0.16974 0.53284-0.09345l47.286 20.161c0.16042 0.0686 0.2712 0.21552 0.29793 0.38718 0.0229 0.17164-0.0419 0.34139-0.17379 0.45392l-31.893 26.623c-0.0993 0.0801-0.22917 0.12398-0.36094 0.11254"/><path d="m169.01 99.388 44.679 19.051-12.162-26.358zm45.632 20.512c-0.0553-5e-3 -0.10498-0.0191-0.15659-0.0382l-47.286-20.161c-0.20243-0.08773-0.31894-0.2899-0.30175-0.50351 0.0211-0.21552 0.17571-0.3948 0.3877-0.44057l34.417-7.7357c0.22918-0.04578 0.46219 0.06675 0.55959 0.28227l12.872 27.891c0.086 0.18691 0.0497 0.41005-0.0955 0.5531-0.1069 0.10869-0.25209 0.16402-0.39725 0.15257"/><path d="m183.81 145.81 14.146 4.3123 15.111-28.729zm14.358 5.4013c-0.0345-2e-3 -0.0744-9e-3 -0.10509-0.019l-15.422-4.6956c-0.17569-0.0553-0.30558-0.19835-0.34567-0.38145-0.0363-0.17737 0.0306-0.35664 0.17189-0.47871l31.891-26.619c0.18526-0.15258 0.44881-0.15449 0.63216-3e-3 0.18526 0.14495 0.23873 0.40624 0.12987 0.61604l-16.471 31.317c-0.0955 0.17929-0.28647 0.28228-0.48128 0.26511"/><path d="m214.2 121.38-14.843 28.221 15.055-7.3333zm-16.033 29.831c-0.11841-9e-3 -0.233-0.059-0.31512-0.15066-0.1547-0.15067-0.18526-0.38336-0.084-0.57599l16.469-31.317c0.10689-0.20408 0.33803-0.30325 0.55957-0.25366 0.22155 0.0535 0.38006 0.25176 0.38197 0.47872l0.23492 23.179c2e-3 0.19073-0.11072 0.3681-0.28266 0.45392l-16.704 8.1362c-0.0822 0.0419-0.17189 0.0572-0.25974 0.0497"/><path d="m202.39 91.583 11.058 23.97-5.6933-30.443zm12.246 28.317c-0.17569-0.0134-0.33612-0.12206-0.41252-0.2899l-12.869-27.893c-0.0822-0.17165-0.0535-0.37572 0.0668-0.52449l6.2433-7.5355c0.12414-0.15067 0.31703-0.21933 0.50993-0.16211 0.18525 0.04767 0.32849 0.19835 0.36479 0.38717l6.6253 35.433c0.0477 0.24412-0.0993 0.48633-0.33614 0.56262-0.0649 0.0211-0.12987 0.0286-0.1929 0.0228"/><path d="m208.71 84.756 6.3216 33.798 29.261-20.243zm5.932 35.145c-0.0497-3e-3 -0.0993-0.019-0.15088-0.0381-0.1547-0.0648-0.26548-0.20026-0.29793-0.37l-6.6272-35.425c-0.0325-0.17928 0.0325-0.35856 0.17189-0.4749 0.1356-0.11634 0.3285-0.14686 0.49466-0.08392l37.297 14.209c0.1738 0.06866 0.29603 0.22505 0.31703 0.40433 0.0249 0.185-0.0591 0.36619-0.21008 0.47109l-30.672 21.22c-0.0936 0.0667-0.20816 0.0973-0.32275 0.0877"/><path d="m215.19 120.5 0.21964 21.609 26.463 1.522zm-0.31513 22.574c-0.25783-0.019-0.45645-0.2346-0.45836-0.49017l-0.233-23.179c-3e-3 -0.19835 0.10881-0.37573 0.28648-0.45773 0.17953-0.0821 0.3896-0.0535 0.53666 0.0763l28.621 24.813c0.16424 0.13731 0.21771 0.36619 0.1375 0.56453-0.0822 0.19454-0.27883 0.32233-0.49274 0.30898l-28.386-1.6345c-3e-3 -2e-3 -8e-3 -2e-3 -0.0115-2e-3"/><path d="m215.55 119.49 27.364 23.726 0.88045-7.8063c-0.94538-1.829-2.0951-3.5208-3.4301-5.0313-0.1165-0.12969-0.1547-0.3166-0.0975-0.48634 0.0573-0.16784 0.19863-0.29181 0.37242-0.32995 1.4038-0.28799 2.7426-0.8163 3.982-1.5658l2.9297-26.148zm27.718 25.219c-0.10509-8e-3 -0.20626-0.0497-0.28838-0.11823l-28.621-24.817c-0.12414-0.10292-0.18907-0.26511-0.17187-0.42722 0.0191-0.16402 0.11458-0.30516 0.254-0.38335l33.47-18.451c0.16424-0.0896 0.36669-0.0839 0.52139 0.021 0.15278 0.10303 0.23872 0.28227 0.2158 0.46918l-3.0634 27.346c-0.0153 0.14876-0.0994 0.28418-0.22727 0.36238-1.1593 0.73237-2.4045 1.2798-3.7108 1.6364 1.1937 1.4438 2.2364 3.0382 3.1035 4.7452 0.0439 0.0859 0.0611 0.1831 0.0497 0.28036l-0.99502 8.8953c-0.0229 0.18308-0.14515 0.33948-0.31703 0.40623-0.0706 0.0286-0.14516 0.04-0.21964 0.0344"/><path d="m245.3 98.828-22.259 15.401 24.289-13.394zm-30.655 21.071c-0.15279-0.0115-0.29603-0.0935-0.38198-0.23459-0.13942-0.22506-0.0802-0.52068 0.13751-0.67135l30.67-21.22c0.19861-0.13732 0.46218-0.11253 0.63598 0.0553l2.7998 2.7674c0.10882 0.11063 0.16615 0.26701 0.14134 0.4234-0.0211 0.1545-0.1146 0.28991-0.25212 0.3681l-33.47 18.451c-0.086 0.0496-0.18525 0.0687-0.28074 0.061"/><path d="m248.61 101.31-2.9068 25.952c3.5485-2.6816 5.4717-7.1063 4.9484-11.556-0.16043-1.3885-0.55958-2.7464-1.1879-4.0319-0.0668-0.14113-0.0649-0.30515 8e-3 -0.4463 1.1593-2.2429 1.6157-4.7547 1.3254-7.2684-0.12987-1.0719-0.39916-2.138-0.81168-3.1679zm-3.5657 27.481c-0.0784-5e-3 -0.15279-0.0305-0.22346-0.0744-0.16425-0.10107-0.25019-0.28608-0.22918-0.47871l3.0615-27.342c0.0211-0.185 0.14514-0.3433 0.32085-0.41005l2.1085-0.79723c0.24255-0.08773 0.52712 0.02289 0.63216 0.2651 0.55576 1.2569 0.91291 2.5652 1.0714 3.8889 0.30558 2.632-0.14897 5.2563-1.3178 7.6194 0.61306 1.3198 1.0103 2.7102 1.1746 4.1311 0.60734 5.182-1.8621 10.335-6.291 13.126-0.0936 0.0573-0.20245 0.0821-0.30749 0.0725"/><path d="m244.6 137.13-0.5596 4.9912 1.4954-2.3573c-0.26355-0.90403-0.57868-1.7833-0.93581-2.6339m-1.335 7.5812c-0.0421-3e-3 -0.086-0.0115-0.12606-0.0286-0.21963-0.0763-0.35714-0.2918-0.3304-0.52449l0.99886-8.8953c0.0249-0.21932 0.19288-0.39669 0.41061-0.43484 0.21964-0.042 0.42971 0.0725 0.53095 0.27082l0.16614 0.31279c0.66463 1.3541 1.2166 2.7998 1.6406 4.2932 0.0402 0.13542 0.0172 0.28227-0.0573 0.40244l-2.7731 4.3733c-0.10313 0.1602-0.28075 0.24412-0.46027 0.23077"/><path d="m243.84 144.29 2.1658 7.503c0.74485-3.5398 0.70856-7.1941-0.12606-10.721zm2.1581 9.9119c-0.20626-0.0172-0.38197-0.1564-0.43735-0.35856l-2.7368-9.4942c-0.042-0.13732-0.0211-0.28227 0.0573-0.40434l2.7712-4.3752c0.1051-0.16403 0.30749-0.25176 0.49275-0.22506 0.1967 0.0286 0.35521 0.16403 0.4087 0.35666 1.3178 4.6288 1.3044 9.5209-0.0363 14.144-0.0611 0.21552-0.254 0.35857-0.47937 0.36047-0.0134-2e-3 -0.0249-2e-3 -0.0401-3e-3"/><path d="m248.11 101.45c-0.1719-0.0133-0.33232-0.11825-0.41252-0.28608-0.1069-0.23651-0.0191-0.51878 0.21197-0.64274l1.9844-1.1024c0.12032-0.06866 0.25974-0.08201 0.39534-0.03815 0.12795 0.04388 0.23682 0.13542 0.29602 0.25938 0.0307 0.06293 0.0592 0.1316 0.084 0.20026 0.0553 0.12398 0.0802 0.32424 0.0267 0.45202-0.0515 0.12777-0.12988 0.28227-0.26165 0.32994l-2.1065 0.79914c-0.0726 0.0248-0.14706 0.0344-0.21773 0.0286"/><path d="m60.99 29.982c-1.0619 0.95552-2.0588 1.9625-2.9755 3.002l7.8877-1.707zm-5.1948 4.4782c-0.20244-0.01526-0.38197-0.16021-0.44118-0.36619-0.06494-0.25748 0.07831-0.52258 0.33232-0.60459l0.36478-0.11825c0.15088-0.05149 0.30176-0.10299 0.45263-0.15067 1.1975-1.4514 2.5496-2.8494 4.0221-4.1597 0.12223-0.11253 0.29603-0.14876 0.45836-0.11062l7.181 1.8901c0.22345 0.05912 0.37624 0.2632 0.37051 0.49207-0.0038 0.23078-0.16807 0.42722-0.38961 0.47681l-12.206 2.6434c-0.04583 0.0096-0.09548 0.01336-0.14515 0.0076"/><path d="m63.537 32.807-7.5955 1.644c-5.0821 1.6154-9.7994 4.3599-13.757 7.9875zm-23.715 11.722c-0.14324-0.01145-0.27884-0.08392-0.36478-0.20789-0.13942-0.19072-0.12032-0.45774 0.04202-0.63129 4.4308-4.7166 10.029-8.2431 16.186-10.2l12.248-2.6549c0.2521-0.05721 0.49847 0.08773 0.57868 0.32995 0.08022 0.24603-0.03629 0.50542-0.26929 0.61031l-28.174 12.712c-0.08021 0.03433-0.16425 0.04767-0.24637 0.04196"/><path d="m106.8 66.149c-0.15661 1.9187-1.8392 3.3453-3.7624 3.1908-1.9194-0.15639-3.3518-1.8348-3.1952-3.7534 0.15661-1.9206 1.8411-3.3491 3.7605-3.1927 1.9213 0.15639 3.3537 1.8367 3.1971 3.7553"/><path d="m103.52 63.386c-1.3694-0.11062-2.5745 0.91166-2.6852 2.2791-0.11072 1.3694 0.91292 2.569 2.2823 2.6816 1.3694 0.11062 2.5764-0.90975 2.6872-2.2772 0.11073-1.3713-0.91292-2.5729-2.2842-2.6835m-0.5634 6.948c-2.4637-0.20026-4.3067-2.3669-4.1062-4.8291 0.19863-2.4603 2.3663-4.3027 4.83-4.1044 2.4675 0.20026 4.3105 2.3688 4.11 4.8291-0.20053 2.4622-2.3682 4.3046-4.8338 4.1044"/><path d="m130.89 38.593c-0.15661 1.9206-1.8392 3.3491-3.7624 3.1927-1.9213-0.15449-3.3518-1.8367-3.1952-3.7572 0.15661-1.9168 1.8392-3.3453 3.7605-3.1908 1.9213 0.15639 3.3537 1.8386 3.1971 3.7553"/><path d="m127.62 35.83c-1.3713-0.11062-2.5764 0.91166-2.6872 2.2791-0.11084 1.3694 0.9129 2.5729 2.2842 2.6835 1.3674 0.11253 2.5745-0.91166 2.6852-2.281 0.11073-1.3675-0.91291-2.571-2.2823-2.6816m-0.56532 6.948c-2.4656-0.20026-4.3067-2.3669-4.1062-4.8291s2.3644-4.3027 4.8319-4.1025c2.4656 0.20026 4.3105 2.365 4.11 4.8272-0.20054 2.4641-2.3701 4.3046-4.8358 4.1044"/><path d="m119.27 31.909c-0.10127 1.2321-1.1822 2.1494-2.4179 2.0503-1.2338-0.10108-2.1524-1.1787-2.0512-2.4126 0.0993-1.234 1.1803-2.1533 2.4141-2.0541 1.2357 0.10108 2.1543 1.1825 2.055 2.4165"/><path d="m117.13 30.487c-0.68373-0.0553-1.2872 0.45583-1.3426 1.1405-0.0553 0.68279 0.45645 1.2836 1.1421 1.3408 0.68373 0.0553 1.2872-0.45583 1.3426-1.1405 0.0553-0.6847-0.45645-1.2855-1.1421-1.3408m-0.36287 4.4629c-1.78-0.14304-3.1112-1.7051-2.9679-3.4845 0.14515-1.7794 1.7131-3.1088 3.4912-2.9638 1.7819 0.14304 3.113 1.7089 2.9698 3.4883-0.14515 1.7775-1.7131 3.105-3.4931 2.96"/><path d="m191.03 34.979c-0.12224 1.5067-1.4458 2.6301-2.9546 2.5061-1.5088-0.12206-2.6318-1.4419-2.5095-2.9486 0.12222-1.5105 1.4457-2.6301 2.9526-2.508 1.5107 0.12206 2.6318 1.44 2.5114 2.9505"/><path d="m188.44 33.019c-0.95682-0.07819-1.7991 0.63892-1.8755 1.5964-0.0784 0.95743 0.63789 1.7985 1.5947 1.8767 0.95683 0.07629 1.8048-0.63701 1.8812-1.5944 0.0784-0.95743-0.64171-1.8004-1.6005-1.8786m-0.44308 5.4604c-2.055-0.16784-3.5905-1.974-3.4244-4.0243 0.16614-2.0522 1.9748-3.5875 4.0298-3.4216 2.055 0.16784 3.5905 1.9721 3.4244 4.0243-0.16616 2.0522-1.9729 3.5875-4.0298 3.4216"/><path d="m178.34 33.671c-0.1547 1.9168-1.8373 3.3472-3.7586 3.1908-1.9213-0.15639-3.3537-1.8386-3.199-3.7534 0.15661-1.9206 1.843-3.3491 3.7643-3.1946 1.9194 0.15639 3.3499 1.8386 3.1933 3.7572"/><path d="m175.07 30.907c-1.3694-0.11062-2.5764 0.91356-2.6852 2.2811-0.11268 1.3694 0.91292 2.5729 2.2823 2.6835 1.3713 0.11062 2.5745-0.91166 2.6852-2.281 0.11072-1.3675-0.911-2.5709-2.2823-2.6835m-0.5634 6.948c-2.4675-0.20026-4.3086-2.365-4.1081-4.8272 0.19863-2.4641 2.3663-4.3046 4.8338-4.1044 2.4637 0.20026 4.3086 2.365 4.1062 4.8291-0.19862 2.4622-2.3682 4.3008-4.8319 4.1025"/><path d="m163.03 53.716c-0.15661 1.9206-1.8411 3.3472-3.7624 3.1927-1.9213-0.15639-3.3518-1.8367-3.1952-3.7572 0.15661-1.9168 1.8373-3.3434 3.7605-3.1889 1.9213 0.15639 3.3518 1.8367 3.1971 3.7534"/><path d="m159.75 50.954c-1.3713-0.11253-2.5745 0.91166-2.6852 2.2791-0.11072 1.3694 0.911 2.5709 2.2823 2.6816 1.3674 0.11062 2.5726-0.90975 2.6814-2.2791 0.11268-1.3694-0.9091-2.571-2.2785-2.6816m-0.56531 6.948c-2.4656-0.20026-4.3105-2.3688-4.1081-4.831 0.1986-2.4603 2.3682-4.3008 4.8338-4.1006 2.4656 0.19835 4.3086 2.365 4.1081 4.8253-0.19863 2.4622-2.3682 4.3065-4.8338 4.1063"/><path d="m170.85 98.56c-0.15661 1.9168-1.8392 3.3472-3.7605 3.1908-1.9213-0.15448-3.3518-1.8367-3.1971-3.7553 0.15661-1.9187 1.8411-3.3472 3.7605-3.1927 1.9232 0.15639 3.3518 1.8386 3.1971 3.7572"/><path d="m167.57 95.797c-1.3694-0.11062-2.5745 0.91166-2.6852 2.2791-0.11073 1.3694 0.911 2.571 2.2823 2.6835 1.3694 0.11061 2.5764-0.91167 2.6872-2.2811 0.11072-1.3675-0.91291-2.5709-2.2842-2.6816m-0.5634 6.9442c-2.4675-0.19836-4.3086-2.3631-4.1081-4.8253 0.19862-2.4622 2.3663-4.3046 4.8338-4.1044 2.4656 0.19835 4.3086 2.3669 4.1081 4.8291-0.19863 2.4641-2.3682 4.3008-4.8338 4.1006"/><path d="m217.67 119.34c-0.15661 1.9168-1.8411 3.3453-3.7605 3.1889-1.9232-0.15641-3.3518-1.8367-3.1971-3.7515 0.15661-1.9225 1.8392-3.3491 3.7605-3.1946 1.9213 0.15639 3.3537 1.8367 3.1971 3.7572"/><path d="m214.4 116.57c-1.3694-0.11062-2.5764 0.91165-2.6871 2.2811-0.11084 1.3694 0.9129 2.569 2.2842 2.6816 1.3694 0.1106 2.5745-0.90975 2.6852-2.2792 0.11073-1.3694-0.911-2.571-2.2823-2.6835m-0.56531 6.948c-2.4656-0.20026-4.3086-2.3669-4.1081-4.8291 0.19861-2.4622 2.3682-4.3046 4.8357-4.1063 2.4637 0.20025 4.3048 2.3688 4.1043 4.8329-0.19863 2.4603-2.3663 4.3008-4.8319 4.1025"/><path d="m211.56 84.877c-0.15661 1.9187-1.8392 3.3472-3.7605 3.1908-1.9232-0.15449-3.3537-1.8367-3.1971-3.7534 0.1547-1.9187 1.8373-3.3472 3.7624-3.1908 1.9213 0.15449 3.3499 1.8367 3.1952 3.7534"/><path d="m208.28 82.114c-1.3732-0.11253-2.5764 0.91166-2.6872 2.2791-0.11084 1.3694 0.91099 2.5729 2.2842 2.6835 1.3675 0.11062 2.5726-0.91166 2.6814-2.2791 0.11269-1.3694-0.90908-2.5729-2.2784-2.6835m-0.56531 6.948c-2.4656-0.20026-4.3105-2.3669-4.1081-4.8291 0.19862-2.4641 2.3682-4.3027 4.8338-4.1025 2.4637 0.20026 4.3086 2.365 4.1081 4.8272-0.19863 2.4622-2.3701 4.3027-4.8338 4.1044"/><path d="m137.62 85.458c-0.15661 1.9206-1.8354 3.3491-3.7586 3.1927-1.9213-0.15449-3.3518-1.8348-3.1952-3.7553 0.15661-1.9168 1.8373-3.3453 3.7605-3.1889 1.9213 0.15448 3.3499 1.8348 3.1933 3.7515"/><path d="m134.35 82.697c-1.3694-0.11062-2.5764 0.90975-2.6872 2.2772-0.11083 1.3713 0.91481 2.5729 2.2842 2.6854 1.3694 0.11062 2.5745-0.91166 2.6852-2.281 0.11072-1.3694-0.9129-2.569-2.2823-2.6816m-0.56341 6.948c-2.4656-0.20026-4.3105-2.3669-4.11-4.831 0.19861-2.4603 2.3701-4.3008 4.8338-4.1005 2.4656 0.20026 4.3105 2.365 4.11 4.8253-0.19863 2.4641-2.3701 4.3046-4.8338 4.1063"/><path d="m186.1 55.177c-0.15661 1.9187-1.8411 3.3472-3.7605 3.1908-1.9232-0.15639-3.3518-1.8367-3.1952-3.7534 0.1566-1.9206 1.8373-3.3472 3.7586-3.1927 1.9213 0.15639 3.3518 1.8348 3.1971 3.7553"/><path d="m182.82 52.415c-1.3713-0.11062-2.5764 0.91356-2.6872 2.2791-0.11084 1.3694 0.9129 2.5729 2.2842 2.6835 1.3694 0.11062 2.5764-0.91166 2.6853-2.281 0.11267-1.3656-0.91101-2.569-2.2823-2.6816m-0.56533 6.9461c-2.4637-0.20026-4.3105-2.365-4.1081-4.8291 0.19861-2.4622 2.3701-4.3027 4.8357-4.1044 2.4656 0.20026 4.3067 2.3669 4.1062 4.831-0.19863 2.4622-2.3663 4.3027-4.8338 4.1025"/><path d="m211.26 39.361c-0.13368 1.644-1.5775 2.8685-3.2238 2.7369-1.6482-0.13542-2.8705-1.5773-2.7387-3.2194 0.13369-1.6459 1.5756-2.8685 3.2219-2.735 1.6482 0.13351 2.8743 1.5716 2.7406 3.2175"/><path d="m208.44 37.136c-1.0962-0.08773-2.0588 0.73047-2.1467 1.8233-0.0898 1.0928 0.72957 2.0579 1.8239 2.1475 1.0943 0.08773 2.0607-0.73238 2.1505-1.8252 0.0879-1.0928-0.73338-2.0579-1.8277-2.1456m-0.4851 5.9525c-2.1906-0.17737-3.8292-2.0999-3.6516-4.2913 0.17762-2.1857 2.1066-3.8259 4.2972-3.6485 2.1925 0.17928 3.8292 2.1056 3.6516 4.2932-0.17762 2.1895-2.1028 3.824-4.2972 3.6466"/><path d="m106.41 20.25c-0.15661 1.9206-1.8392 3.3491-3.7605 3.1927-1.9213-0.15448-3.3518-1.8348-3.1952-3.7553 0.1547-1.9187 1.8392-3.3453 3.7586-3.1908 1.9213 0.15639 3.3537 1.8367 3.1971 3.7534"/><path d="m103.14 17.489c-1.3713-0.11062-2.5745 0.90975-2.6852 2.2772-0.11072 1.3713 0.911 2.5729 2.2823 2.6835 1.3694 0.11253 2.5745-0.90975 2.6852-2.281 0.11072-1.3675-0.9129-2.569-2.2823-2.6797m-0.56532 6.948c-2.4637-0.20026-4.3067-2.3688-4.1081-4.831 0.20053-2.4603 2.3682-4.3027 4.8338-4.1025 2.4656 0.19835 4.3086 2.3669 4.11 4.8272-0.20054 2.4641-2.3701 4.3065-4.8358 4.1063"/><path d="m116.42 54.025c-0.15661 1.9187-1.8392 3.3491-3.7605 3.1927-1.9213-0.15449-3.3518-1.8367-3.1971-3.7572 0.15661-1.9168 1.8411-3.3453 3.7624-3.1908 1.9213 0.15639 3.3518 1.8386 3.1952 3.7553"/><path d="m113.15 51.262c-1.3713-0.11062-2.5745 0.91166-2.6852 2.2791-0.11072 1.3694 0.911 2.5729 2.2823 2.6835 1.3694 0.11253 2.5745-0.91166 2.6852-2.281 0.11073-1.3675-0.9129-2.571-2.2823-2.6816m-0.5634 6.9461c-2.4656-0.19835-4.3105-2.365-4.11-4.8272 0.20052-2.4622 2.3682-4.3027 4.8338-4.1025 2.4656 0.19835 4.3086 2.365 4.1081 4.8272-0.19863 2.4641-2.3682 4.3027-4.8319 4.1025"/><path d="m186.27 146.31c-0.1547 1.9148-1.8392 3.3453-3.7624 3.1889-1.9194-0.15639-3.3518-1.8386-3.1952-3.7534 0.1547-1.9225 1.8392-3.3472 3.7605-3.1927 1.9213 0.15641 3.3537 1.8348 3.1971 3.7573"/><path d="m182.99 143.54c-1.3694-0.1106-2.5764 0.91358-2.6852 2.2811-0.11268 1.3694 0.91291 2.5728 2.2804 2.6854 1.3694 0.1087 2.5745-0.91356 2.6853-2.283 0.11268-1.3675-0.9129-2.5709-2.2804-2.6835m-0.56532 6.9461c-2.4675-0.20025-4.3086-2.3669-4.1081-4.8253 0.20053-2.4622 2.3663-4.3046 4.8338-4.1044 2.4675 0.19834 4.3105 2.3669 4.11 4.8291-0.20055 2.4584-2.3682 4.3008-4.8358 4.1005"/><path d="m162.59 148.38c-0.1547 1.9168-1.8373 3.3434-3.7586 3.1889-1.9213-0.1564-3.3518-1.8367-3.1952-3.7515 0.15661-1.9244 1.8373-3.3491 3.7605-3.1946 1.9213 0.15639 3.3499 1.8348 3.1933 3.7572"/><path d="m159.32 145.62c-1.3732-0.11062-2.5783 0.91356-2.6891 2.283-0.11269 1.3656 0.9129 2.5709 2.2861 2.6835 1.3674 0.1087 2.5745-0.91355 2.6833-2.281 0.11269-1.3694-0.9129-2.5729-2.2804-2.6854m-0.56532 6.948c-2.4656-0.20026-4.3105-2.3688-4.11-4.8272 0.20053-2.4641 2.3701-4.3046 4.8357-4.1044 2.4637 0.19835 4.3086 2.365 4.1081 4.831-0.19863 2.4565-2.3701 4.2989-4.8338 4.1006"/><path d="m118.07 153.96c-0.15661 1.9206-1.8373 3.3472-3.7586 3.1927-1.9213-0.15639-3.3518-1.8367-3.1952-3.7573 0.1547-1.9168 1.8373-3.3472 3.7586-3.1908 1.9213 0.1564 3.3518 1.8367 3.1952 3.7553"/><path d="m114.79 151.2c-1.3694-0.1106-2.5745 0.90785-2.6853 2.2772-0.11072 1.3713 0.91292 2.571 2.2823 2.6816 1.3694 0.11062 2.5764-0.90783 2.6872-2.2791 0.11072-1.3694-0.91292-2.5671-2.2842-2.6797m-0.56341 6.9461c-2.4656-0.20025-4.3086-2.3669-4.11-4.831 0.20053-2.4603 2.3682-4.3008 4.8357-4.1006 2.4656 0.19836 4.3086 2.365 4.11 4.8253-0.20053 2.4641-2.3701 4.3046-4.8357 4.1063"/><path d="m218.49 142.87c-0.1547 1.9168-1.8392 3.3491-3.7605 3.1946-1.9232-0.15639-3.3499-1.8424-3.1952-3.7592 0.1566-1.9168 1.8373-3.3491 3.7605-3.1927 1.9213 0.15449 3.3518 1.8386 3.1952 3.7572"/><path d="m215.21 140.11c-1.3694-0.11253-2.5764 0.91356-2.6853 2.281-0.11268 1.3675 0.91101 2.5728 2.2823 2.6835 1.3713 0.11061 2.5764-0.91357 2.6872-2.281 0.11072-1.3694-0.91292-2.571-2.2842-2.6835m-0.5634 6.9461c-2.4656-0.20026-4.3105-2.3631-4.11-4.8272 0.19862-2.4622 2.3701-4.3027 4.8357-4.1006 2.4656 0.19836 4.3086 2.3631 4.1062 4.8253-0.19862 2.4641-2.3663 4.3008-4.8319 4.1024"/><path d="m96.422 137.22c-0.15661 1.9206-1.8392 3.3491-3.7605 3.1927-1.9232-0.15448-3.3537-1.8367-3.1971-3.7572 0.1547-1.9149 1.8392-3.3434 3.7605-3.187 1.9213 0.15448 3.3537 1.8367 3.1971 3.7515"/><path d="m93.145 134.46c-1.3694-0.11061-2.5745 0.91357-2.6852 2.2791-0.11077 1.3675 0.91291 2.5729 2.2823 2.6835 1.3694 0.11062 2.5726-0.91355 2.6833-2.2791 0.11077-1.3675-0.90909-2.5729-2.2804-2.6835m-0.5634 6.95c-2.4675-0.20216-4.3105-2.3669-4.11-4.831 0.20053-2.4622 2.3682-4.3008 4.8338-4.1006 2.4656 0.19836 4.3086 2.3631 4.1081 4.8253-0.19863 2.4641-2.3682 4.3046-4.8319 4.1063"/><path d="m109.39 124.54c-0.15661 1.9187-1.8392 3.3472-3.7624 3.1908-1.9194-0.15448-3.3499-1.8367-3.1952-3.7534 0.15661-1.9187 1.8411-3.3472 3.7605-3.1927 1.9213 0.15639 3.3537 1.8386 3.1971 3.7553"/><path d="m106.11 121.78c-1.3694-0.11061-2.5745 0.91165-2.6852 2.2791-0.11073 1.3694 0.91291 2.571 2.2823 2.6835 1.3713 0.11061 2.5745-0.91165 2.6852-2.281 0.11072-1.3675-0.90909-2.569-2.2823-2.6816m-0.56341 6.948c-2.4656-0.20026-4.3086-2.3669-4.1081-4.8291 0.20054-2.4641 2.3682-4.3008 4.8319-4.1024 2.4656 0.20026 4.3105 2.3631 4.11 4.8272-0.20055 2.4622-2.3682 4.3046-4.8338 4.1044"/><path d="m75.884 97.855c-0.15661 1.9187-1.8373 3.3472-3.7586 3.1927-1.9213-0.15639-3.3518-1.8386-3.1952-3.7553 0.1547-1.9187 1.8373-3.3472 3.7586-3.1927 1.9213 0.15639 3.3518 1.8386 3.1952 3.7553"/><path d="m72.609 95.091c-1.3713-0.11062-2.5745 0.91356-2.6872 2.281-0.11077 1.3675 0.911 2.5709 2.2842 2.6816 1.3694 0.11252 2.5745-0.90976 2.6852-2.2792 0.11077-1.3694-0.91291-2.5729-2.2823-2.6835m-0.56532 6.948c-2.4656-0.20026-4.3086-2.3669-4.1081-4.8291 0.20053-2.4622 2.3682-4.3027 4.8338-4.1025 2.4656 0.20026 4.3105 2.365 4.11 4.8272-0.20053 2.4641-2.3701 4.3046-4.8357 4.1044"/><path d="m31.982 100.62c-0.15661 1.9187-1.8392 3.3453-3.7605 3.1908-1.9213-0.15639-3.3499-1.8367-3.1952-3.7553 0.15661-1.9187 1.8392-3.3472 3.7605-3.1908 1.9213 0.15448 3.3518 1.8348 3.1952 3.7553"/><path d="m28.706 97.86c-1.3694-0.11253-2.5745 0.90975-2.6852 2.2791-0.11268 1.3694 0.91291 2.569 2.2823 2.6816 1.3694 0.11063 2.5764-0.90975 2.6872-2.2791 0.11077-1.3694-0.91482-2.5709-2.2842-2.6816m-0.5634 6.948c-2.4656-0.20026-4.3105-2.3688-4.11-4.8291 0.20053-2.4622 2.3701-4.3046 4.8338-4.1044 2.4656 0.20026 4.3105 2.3688 4.11 4.8291-0.19862 2.4603-2.3701 4.3046-4.8338 4.1044"/><path d="m71.272 31.556c-0.15661 1.9187-1.8392 3.3453-3.7624 3.1889-1.9213-0.15448-3.3518-1.8348-3.1952-3.7515 0.15661-1.9225 1.8392-3.3491 3.7605-3.1927 1.9213 0.15449 3.3537 1.8348 3.1971 3.7553"/><path d="m67.993 28.793c-1.3694-0.11062-2.5745 0.90975-2.6852 2.2791-0.11077 1.3694 0.91291 2.5709 2.2823 2.6816 1.3694 0.11062 2.5745-0.90975 2.6852-2.2772 0.11268-1.3713-0.91291-2.5709-2.2823-2.6835m-0.56341 6.9461c-2.4656-0.20026-4.3086-2.365-4.1081-4.8272 0.20054-2.4641 2.3682-4.3046 4.8319-4.1063 2.4675 0.20026 4.3105 2.3669 4.11 4.831-0.20053 2.4622-2.3682 4.3027-4.8338 4.1025"/></svg>
