<?xml version="1.0" encoding="UTF-8" standalone="no"?>
<svg
   xmlns:dc="http://purl.org/dc/elements/1.1/"
   xmlns:cc="http://creativecommons.org/ns#"
   xmlns:rdf="http://www.w3.org/1999/02/22-rdf-syntax-ns#"
   xmlns:svg="http://www.w3.org/2000/svg"
   xmlns="http://www.w3.org/2000/svg"
   width="700"
   height="847"
   viewBox="0 0 185.20833 224.10209"
   version="1.1"
   id="svg8">
  <defs
     id="defs2" />
  <metadata
     id="metadata5">
    <rdf:RDF>
      <cc:Work
         rdf:about="">
        <dc:format>image/svg+xml</dc:format>
        <dc:type
           rdf:resource="http://purl.org/dc/dcmitype/StillImage" />
        <dc:title></dc:title>
      </cc:Work>
    </rdf:RDF>
  </metadata>
  <g
     id="layer2"
     style="display:inline;opacity:1">
    <rect
       style="fill:#f4e49c;fill-opacity:1;stroke-width:0.216001"
       id="rect863"
       width="185.20833"
       height="224.10208"
       x="0"
       y="0" />
  </g>
  <g
     id="layer1"
     style="display:inline">
    <circle
       id="path14"
       cx="92.535103"
       cy="92.716644"
       style="fill:#314559;fill-opacity:1;stroke-width:0.175361"
       r="66.278122" />
  </g>
  <g
     id="layer3"
     style="display:inline">
    <g
       aria-label="In data AI trust"
       transform="matrix(1.0000789,0,0,0.99992113,-0.53453439,-44.69025)"
       id="text861"
       style="font-style:normal;font-variant:normal;font-weight:normal;font-stretch:normal;font-size:24.9431px;line-height:1.25;font-family:Caveat;-inkscape-font-specification:Caveat;fill:#314559;fill-opacity:1;stroke:none;stroke-width:0.233843">
      <path
         d="m 28.000354,257.30351 q -0.174602,-0.27437 -0.798179,-0.3492 -0.598634,-0.0748 -1.471643,-0.025 -0.349203,0.0499 -0.673464,-0.0499 -0.32426,-0.0748 -0.523805,-0.27438 -0.174601,-0.1746 -0.124715,-0.37414 0.02494,-0.29932 0.498862,-0.47392 0.498862,-0.1746 1.571415,-0.19955 l 1.321984,-0.0249 0.249431,-0.49886 q 0.09977,-0.27438 0.249431,-0.77324 0.149659,-0.49886 0.324261,-1.07255 0.09977,-0.34921 0.299317,-0.94784 0.199545,-0.59863 0.424033,-1.2721 0.224487,-0.67346 0.399089,-1.19727 0.174602,-0.54874 0.224488,-0.77323 0.09977,-0.22449 0.274374,-0.7483 0.174602,-0.54874 0.32426,-1.09749 0.174602,-0.57369 0.224488,-0.82312 0.648521,-1.97051 0.848066,-2.79363 0.199545,-0.84807 0.09977,-0.87301 -0.09977,0 -0.498862,0.0249 -0.374146,0.025 -0.848065,0.0748 -0.448976,0.0249 -0.823123,0.0748 -0.349203,0.0499 -0.424032,0.0998 -0.124716,0.17461 -0.424033,0.0748 -0.299317,-0.0998 -0.374146,-0.3492 -0.02494,-0.22449 -0.02494,-0.3492 0.02494,-0.12472 0.149659,-0.19955 0.174602,-0.14966 0.673464,-0.32426 0.498862,-0.19954 1.122439,-0.3492 0.648521,-0.14966 1.222212,-0.22449 0.424033,-0.0499 0.848066,-0.1746 0.424032,-0.14966 0.673463,-0.34921 0.224488,-0.0748 0.424033,-0.12471 0.224488,-0.0499 0.448976,-0.0249 0.199545,0.12471 0.673463,0.12471 0.498862,0 1.047611,-0.0249 1.396813,-0.12472 1.870732,-0.0748 0.498862,0.0499 0.673464,0.39909 0.124715,0.47392 0.04989,0.74829 -0.07483,0.24943 -0.498862,0.22449 -0.224488,0.0499 -0.823122,0.0998 -0.573692,0.0249 -1.222212,0.0499 -1.77096,0.14966 -1.895676,0.3492 -0.09977,0.0998 -0.174601,0.19955 -0.04989,0.0998 -0.149659,0.22448 0.02494,0.0998 -0.124716,0.64853 -0.124715,0.5238 -0.32426,1.07255 -0.09977,0.32426 -0.299317,0.92289 -0.199545,0.59864 -0.424033,1.24716 -0.199545,0.62358 -0.374146,1.14738 -0.174602,0.49886 -0.249431,0.67346 -0.09977,0.22449 -0.174602,0.49887 -0.04989,0.24943 -0.07483,0.37414 -0.349204,1.22221 -0.623578,2.07028 -0.249431,0.84807 -0.473919,1.49659 -0.199544,0.62357 -0.374146,1.22221 -0.174602,0.57369 -0.374147,1.2721 0,0 0.374147,-0.0249 0.399089,-0.0499 1.04761,-0.0998 1.172326,-0.12471 1.671188,-0.14966 0.523805,-0.0249 0.698407,0.0748 0.174601,0.0748 0.249431,0.29932 0.498862,0.67346 0.124715,0.92289 -0.374146,0.24943 -1.77096,0.22449 -1.297041,0.0499 -1.995448,0.0748 -0.673464,0.0499 -0.947838,0.12472 -0.249431,0.0748 -0.299317,0.24943 0,0.19954 -0.199545,0.19954 -0.199545,0 -0.498862,-0.0998 z"
         style="font-style:normal;font-variant:normal;font-weight:normal;font-stretch:normal;font-size:24.9431px;font-family:Caveat;-inkscape-font-specification:Caveat;fill:#314559;fill-opacity:1;stroke-width:0.233843"
         id="path1451" />
      <path
         d="m 44.26324,255.38289 q -0.498862,0 -0.823122,-0.19954 -0.324261,-0.22449 -0.548749,-0.72335 -0.09977,-0.34921 -0.174601,-0.77324 -0.04989,-0.44898 -0.04989,-0.82312 0,-0.39909 0.07483,-0.52381 0.09977,-0.0998 0.07483,-0.3492 0,-0.27437 0,-0.57369 -0.02494,-0.49886 -0.249431,-0.54875 -0.199545,-0.0748 -0.598634,0.14966 -0.448976,0.27437 -1.172326,0.74829 -0.72335,0.44898 -1.521529,0.99773 -0.773236,0.54874 -1.471643,1.14738 -0.548748,0.59863 -0.673464,0.92289 -0.09977,0.29932 -0.299317,0.29932 -0.199545,0.0998 -0.349203,0.0249 -0.124716,-0.0998 -0.374147,-0.29931 -0.174601,-0.19955 -0.349203,-0.37415 -0.174602,-0.19955 -0.224488,-0.29932 0,-0.12471 0.07483,-0.5238 0.07483,-0.39909 0.174602,-0.79818 0.124716,-0.39909 0.174602,-0.52381 0.124715,0 0.199545,-0.24943 0.09977,-0.24943 0.299317,-0.54875 0.04989,-0.29931 0.249431,-0.79818 0.224488,-0.5238 0.399089,-0.92289 0.349204,-0.59863 0.473919,-0.99772 0.149659,-0.39909 0.199545,-0.99773 -0.02494,-0.0998 0.04989,-0.1746 0.07483,-0.0998 0.174602,-0.0998 v 0 0 q 0.199545,-0.19955 0.473919,-0.0998 0.274374,0.0748 0.498862,0.37414 0.448976,0.59864 0.349203,1.24716 -0.07483,0.62357 -0.798179,1.7959 -0.174602,0.39909 -0.274374,0.62358 -0.07483,0.19954 -0.07483,0.32426 0,0 0.249431,-0.1746 0.274374,-0.17461 0.598634,-0.39909 0.349203,-0.24943 0.548748,-0.37415 0.124716,-0.12472 0.573692,-0.44898 0.448975,-0.32426 0.947837,-0.62357 0.523805,-0.32426 0.773236,-0.37415 0.199545,-0.0998 0.424033,-0.1746 0.224488,-0.0998 0.32426,-0.0998 0.199545,0 0.498862,0.22448 0.324261,0.19955 0.598635,0.49887 0.274374,0.27437 0.32426,0.47391 0,0.0998 0,0.19955 0.02494,0.0998 0.04989,0.19954 0.09977,0.32426 0.09977,0.87301 0.02494,0.54875 -0.02494,0.99773 -0.04989,0.44897 -0.174602,0.5238 0,0 0,0.0748 0.02494,0.0499 0.124715,0.0499 0,0.0998 0,0.12471 0,0 0,0 -0.124715,0 -0.09977,0.22449 0.02494,0.19955 0.149659,0.44898 0.149658,0.24943 0.299317,0.39909 0.299317,0.29931 0.249431,0.57369 -0.04989,0.24943 -0.448976,0.3492 z"
         style="font-style:normal;font-variant:normal;font-weight:normal;font-stretch:normal;font-size:24.9431px;font-family:Caveat;-inkscape-font-specification:Caveat;fill:#314559;fill-opacity:1;stroke-width:0.233843"
         id="path1453" />
      <path
         d="m 59.07938,256.28084 q -0.09977,0 -0.299317,-0.0249 -0.174602,-0.0499 -0.299317,-0.22449 -0.374147,-0.44897 -0.473919,-0.74829 -0.09977,-0.29932 -0.02494,-0.87301 0.04989,-0.37415 0.04989,-0.64852 0.02494,-0.29932 0.04989,-0.49886 -0.09977,-0.0998 -0.374146,0.14966 -0.249431,0.22448 -0.698407,0.57369 -0.848066,0.97278 -1.521529,1.49658 -0.648521,0.49887 -1.172326,0.67347 -0.523805,0.14966 -0.997724,0.0998 -0.424033,-0.0499 -0.673464,-0.3492 -0.249431,-0.32426 -0.32426,-0.82313 -0.04989,-0.49886 0,-1.07255 0.09977,-0.82312 0.349203,-1.57141 0.274374,-0.7483 0.873009,-1.67119 0.274374,-0.49886 0.72335,-0.97278 0.473919,-0.49887 1.022667,-0.87301 0.573691,-0.39909 1.097496,-0.57369 0.573692,-0.22449 1.172326,-0.24943 0.598634,-0.0499 1.072553,0.0998 0.299317,0.14966 0.473919,0.14966 0.199545,0 0.299317,-0.24943 0.124716,-0.19955 0.249431,-0.59864 0.124716,-0.42403 0.299318,-0.72335 l 0.548748,-1.6213 q 0.274374,-0.67346 0.598634,-1.42176 0.32426,-0.74829 0.773236,-1.82084 0.424033,-0.79818 0.698407,-0.9229 0.274374,-0.14966 0.623578,0.19955 0.274374,0.32426 0.199544,0.74829 -0.07483,0.39909 -0.448975,1.29704 -0.174602,0.27438 -0.299318,0.52381 -0.124715,0.22448 -0.349203,0.72335 -0.32426,0.77323 -0.598634,1.39681 -0.274375,0.59863 -0.573692,1.37187 -0.09977,0.39909 -0.274374,0.92289 -0.149658,0.52381 -0.249431,0.94784 -0.07483,0.39909 -0.174602,0.7483 -0.07483,0.32426 -0.174601,0.32426 -0.199545,0.22448 -0.374147,0.79818 -0.174601,0.54874 -0.299317,1.14738 -0.09977,0.59863 -0.174602,0.99772 -0.04989,0.29932 -0.07483,0.77324 -0.02494,0.47392 -0.02494,0.92289 0,0.42404 0,0.59864 0,0.54875 -0.02494,0.6984 -0.02494,0.14966 -0.199545,0.14966 z m -5.31288,-1.57141 q 0.523805,0 1.097496,-0.44898 0.598635,-0.44897 1.197269,-0.99772 0.374146,-0.34921 0.798179,-0.9229 0.448976,-0.57369 0.848066,-1.14738 0.424032,-0.57369 0.673463,-0.99772 0.249431,-0.44898 0.249431,-0.54875 0,-0.12472 -0.224488,-0.1746 -0.224488,-0.0499 -0.523805,-0.0499 -0.274374,-0.0249 -0.448976,0.0249 -0.548748,0.12472 -1.097496,0.49887 -0.523805,0.37414 -1.147383,1.12243 -0.64852,0.79818 -1.072553,1.64625 -0.399089,0.84806 -0.498862,1.42176 -0.09977,0.57369 0.149659,0.57369 z"
         style="font-style:normal;font-variant:normal;font-weight:normal;font-stretch:normal;font-size:24.9431px;font-family:Caveat;-inkscape-font-specification:Caveat;fill:#314559;fill-opacity:1;stroke-width:0.233843"
         id="path1455" />
      <path
         d="m 62.671176,255.63232 q -0.09977,-0.19954 -0.249431,-0.29932 -0.149659,-0.12471 -0.149659,-0.22448 0,-0.0998 -0.02494,-0.19955 0,-0.12471 -0.09977,-0.22449 -0.124716,-0.14965 0.02494,-0.67346 0.149658,-0.54875 0.498862,-1.32198 0.349203,-0.79818 0.823122,-1.67119 0.199545,-0.19955 0.39909,-0.52381 0.199544,-0.32426 0.299317,-0.42403 0,-0.0998 0.07483,-0.1746 0.07483,-0.0998 0.174602,-0.0998 v -0.14966 q 0,-0.12472 0.224488,-0.42403 0.249431,-0.29932 0.598634,-0.64853 0.349204,-0.37414 0.72335,-0.6984 0.374147,-0.34921 0.623578,-0.49886 0.523805,-0.34921 1.072553,-0.42404 0.573691,-0.0748 0.972781,0.24943 0.07483,0.0748 0.249431,0.24944 0.174601,0.1746 0.399089,0.39908 0.249431,0.19955 0.498862,0.42404 l 0.922895,0.82312 -0.448976,1.24715 q -0.32426,0.99773 -0.174601,1.74602 0.174601,0.74829 0.498862,1.29704 0.124715,0.27438 0.498862,0.52381 0.399089,0.24943 0.748293,0.29932 0.199544,0.0249 0.374146,0.14965 0.174602,0.12472 0.174602,0.39909 0,0.24943 -0.09977,0.39909 -0.09977,0.14966 -0.349203,0.19955 -0.823122,0.0998 -1.546472,-0.39909 -0.698407,-0.49886 -1.297041,-1.64625 -0.09977,-0.14966 -0.274375,-0.54874 -0.149658,-0.42404 -0.174601,-0.54875 -0.09977,0.12471 -0.374147,0.47392 -0.274374,0.32426 -0.424032,0.47391 -1.770961,1.79591 -3.068002,2.41949 -1.272098,0.59863 -2.120163,0.0499 z m 0.897951,-1.39681 q 0,0.1746 0.523805,0 0.548749,-0.19955 1.172326,-0.69841 0.848066,-0.72335 1.696131,-1.59636 0.873008,-0.87301 1.396814,-1.6213 l 0.548748,-0.89795 q -0.249431,-0.57369 -0.548748,-0.77324 -0.274375,-0.22448 -0.473919,-0.22448 -0.324261,0 -0.972781,0.59863 -0.623578,0.59863 -1.346928,1.59636 -0.72335,0.99772 -1.37187,2.19499 -0.249431,0.49886 -0.448976,0.97278 -0.174602,0.44898 -0.174602,0.44898 z"
         style="font-style:normal;font-variant:normal;font-weight:normal;font-stretch:normal;font-size:24.9431px;font-family:Caveat;-inkscape-font-specification:Caveat;fill:#314559;fill-opacity:1;stroke-width:0.233843"
         id="path1457" />
      <path
         d="m 75.64155,257.77743 q -0.823122,-0.12472 -1.12244,-0.62358 -0.274374,-0.47392 -0.124715,-1.47164 0.149659,-0.47392 0.174602,-0.84807 0.04989,-0.39909 0.224488,-0.49886 0,0 0.02494,-0.0748 0.04989,-0.0748 -0.02494,-0.14966 0,-0.32426 0.224487,-0.89795 0.04989,-0.14966 0.124716,-0.3492 0.09977,-0.22449 0.09977,-0.22449 -0.124715,-0.19954 0,-0.32426 0.124716,-0.12472 0.249431,-0.22449 0.149659,-0.12471 0.02494,-0.27437 -0.04989,-0.0998 0.124716,-0.44898 0.174602,-0.37414 0.39909,-0.77323 0.224487,-0.39909 0.299317,-0.62358 0,-0.0499 0.124715,-0.34921 0.124716,-0.29931 0.299317,-0.6984 0.174602,-0.39909 0.324261,-0.72335 0.174601,-0.32426 0.224488,-0.42403 0.249431,-0.12472 -0.199545,-0.17461 -0.448976,-0.0499 -0.947838,-0.0249 -0.773236,-0.0249 -1.247155,-0.0748 -0.448976,-0.0499 -0.748293,-0.22449 -0.299317,-0.3492 -0.224488,-0.49886 0.09977,-0.1746 0.598635,-0.19954 0.32426,-0.0249 0.498862,-0.0249 0.199544,0 0.498862,-0.0249 0.32426,-0.0499 0.997724,-0.12472 l 1.272098,-0.0998 0.07483,-0.42403 q 0.199545,-0.32426 0.32426,-0.57369 0.149659,-0.27438 0.249431,-0.54875 0.09977,-0.27437 0.149659,-0.57369 0,0 0.224488,-0.39909 0.224488,-0.42403 0.274374,-0.87301 0.299317,-0.49886 0.523805,-0.89795 0.224488,-0.42403 0.274374,-0.52381 0.274374,-0.22448 0.374147,-0.22448 0.124715,0 0.498862,0.24943 0.224487,0.12471 0.399089,0.29931 0.174602,0.17461 0.224488,0.37415 0.04989,0.1746 -0.149659,0.3492 -0.04989,0.0998 -0.149658,0.37415 -0.09977,0.24943 -0.149659,0.42403 -0.149658,0.17461 -0.374146,0.57369 -0.199545,0.37415 -0.274374,0.77324 -0.199545,0.42403 -0.374147,0.77324 -0.174602,0.32426 -0.274374,0.32426 0.04989,0.24943 0.299317,0.24943 0.249431,-0.0249 0.823123,-0.0499 0.473918,-0.0499 0.64852,-0.0998 0.199545,-0.0748 0.448976,0.0499 0.124715,0.1746 0.199545,0.39909 0.07483,0.22448 0.02494,0.42403 -0.02494,0.1746 -0.199545,0.24943 -0.124715,0 -0.523805,0.14966 -0.374147,0.12471 -0.947838,0.14966 l -1.321984,0.12471 -0.424033,0.84807 q -0.174602,0.32426 -0.299317,0.59863 -0.124716,0.24943 -0.174602,0.29932 0,0.14966 -0.174601,0.44897 -0.149659,0.29932 -0.324261,0.64853 -0.149658,0.42403 -0.349203,0.77323 -0.174602,0.3492 -0.174602,0.3492 -0.09977,0 -0.09977,0.14966 0.124715,0.29932 -0.07483,0.44898 -0.124715,0.0748 -0.224487,0.22449 -0.07483,0.12471 -0.07483,0.12471 0.09977,0.0998 0.02494,0.24943 -0.04989,0.14966 -0.149658,0.32426 0,0.19955 -0.124716,0.5737 -0.09977,0.37414 -0.224488,0.6984 0.02494,0.44898 0.04989,0.57369 0.02494,0.12472 0.124715,0.0998 0.124716,0.0249 0.224488,0 0.09977,-0.025 0.199545,-0.025 0.349203,-0.14966 -0.374147,1.74602 -0.399089,0.62358 -0.548748,0.89795 -0.149659,0.29932 -0.274374,0.29932 z"
         style="font-style:normal;font-variant:normal;font-weight:normal;font-stretch:normal;font-size:24.9431px;font-family:Caveat;-inkscape-font-specification:Caveat;fill:#314559;fill-opacity:1;stroke-width:0.233843"
         id="path1459" />
      <path
         d="m 83.772984,255.80692 q -0.199545,0.0499 -0.523805,0.0499 -0.324261,-0.0249 -0.573692,-0.0748 -0.224488,-0.0748 -0.224488,-0.14966 0,-0.12471 -0.124715,-0.12471 0,0 -0.124716,-0.0998 -0.09977,-0.0998 -0.32426,-0.19954 -0.224488,-0.3492 -0.224488,-0.74829 0,-0.42404 0.224488,-1.32199 0.07483,-0.62358 0.473919,-1.4467 0.424033,-0.84806 1.022667,-1.72107 0.598635,-0.87301 1.247155,-1.57142 0.673464,-0.6984 1.222212,-1.02266 0.349203,-0.34921 0.848065,-0.37415 0.498862,-0.0249 0.947838,0.22449 0.249431,0.12471 0.498862,0.39909 0.249431,0.27437 0.473919,0.59863 0.224488,0.32426 0.374147,0.64852 0.07483,0.27438 0.07483,0.49886 0.02494,0.19955 0,0.49887 0,0.29931 -0.07483,0.89795 -0.124716,0.44897 -0.224488,1.09749 -0.07483,0.64852 -0.07483,1.12244 -0.04989,0.47392 0.09977,0.67347 0.174601,0.19954 0.498862,0.0249 0.299317,-0.14966 0.573691,-0.12472 0.274374,0 0.424033,0.14966 0.174601,0.14966 0.174601,0.44898 0,0.29932 -0.299317,0.62358 -0.274374,0.29931 -0.698407,0.5238 -0.399089,0.19955 -0.773236,0.19955 -0.274374,0 -0.523805,-0.32426 -0.249431,-0.34921 -0.448976,-0.82313 -0.174601,-0.49886 -0.32426,-0.94783 l -0.149658,-0.5737 -1.072554,1.02267 q -0.32426,0.34921 -0.64852,0.64852 -0.299317,0.27438 -0.374147,0.39909 -0.124715,0.22449 -0.473919,0.44898 -0.32426,0.22449 -0.897951,0.44897 z m 0.07483,-1.47164 q 0.424033,-0.24943 0.972781,-0.72335 0.548748,-0.49886 1.072553,-1.07255 0.523805,-0.59864 0.873009,-1.0975 0.424032,-0.57369 0.64852,-1.07255 0.224488,-0.49886 0.324261,-0.94784 -0.09977,-0.27437 -0.324261,-0.57369 -0.224488,-0.32426 -0.399089,-0.3492 -0.548748,0 -1.172326,0.6984 -0.598634,0.67347 -1.172326,1.47164 -0.09977,0.12472 -0.274374,0.39909 -0.174601,0.27438 -0.349203,0.52381 -0.149659,0.22449 -0.199545,0.29932 -0.07483,0.0998 -0.299317,0.57369 -0.199545,0.44897 -0.39909,0.92289 -0.199545,0.44898 -0.199545,0.59864 0,0.14966 0.02494,0.32426 0.04989,0.1746 0.249431,0.22449 0.199544,0.0499 0.623577,-0.19955 z"
         style="font-style:normal;font-variant:normal;font-weight:normal;font-stretch:normal;font-size:24.9431px;font-family:Caveat;-inkscape-font-specification:Caveat;fill:#314559;fill-opacity:1;stroke-width:0.233843"
         id="path1461" />
      <path
         d="m 96.917941,257.3534 q -0.448976,-0.24944 -0.498862,-0.54875 -0.02494,-0.29932 0.349203,-1.04761 0.374147,-0.7483 1.172326,-2.31971 0.598634,-1.12244 0.897952,-1.74602 0.32426,-0.64852 0.424032,-0.92289 0.124716,-0.27438 0.124716,-0.34921 -0.04989,-0.22448 0.04989,-0.3492 0.09977,-0.14966 0.32426,-0.24943 0.124716,-0.12472 0.399082,-0.44898 0.29932,-0.32426 0.54875,-0.77323 0.22449,-0.52381 0.52381,-1.07256 0.29931,-0.54874 0.79818,-1.37187 0.49886,-0.84806 1.29704,-2.19499 0.49886,-0.87301 1.09749,-1.77096 0.59864,-0.92289 1.2721,-1.82085 0.27438,-0.3492 0.49886,-0.54874 0.22449,-0.22449 0.44898,-0.19955 0.29932,0 0.67346,0.19955 0.39909,0.19954 0.72335,0.5238 0.32426,0.32426 0.47392,0.69841 0.12472,0.19954 0.0998,0.84806 -0.0249,0.64852 -0.0998,1.57142 -0.0748,0.92289 -0.1746,1.9705 -0.0748,1.02267 -0.22449,2.41948 -0.14966,1.39682 -0.29931,2.91835 -0.12472,1.52153 -0.19955,2.94328 -0.0748,1.39682 0,2.44443 0.0249,0.22448 0,0.42403 -0.0249,0.19954 -0.0249,0.32426 -0.14966,0.14966 -0.49886,0.12472 -0.32426,0 -0.64852,-0.14966 -0.29932,-0.14966 -0.34921,-0.37415 -0.0748,-0.0748 -0.0998,-0.19954 0,-0.14966 0.0249,-0.59864 0.025,-0.44897 0.0499,-1.42176 l 0.12471,-4.04078 -0.32426,0.025 q -0.22448,0 -0.84806,0.0499 -0.62358,0.0499 -1.34693,0.14966 -0.72335,0.0748 -1.34693,0.1746 -0.59863,0.0748 -0.82312,0.14966 -0.22449,0 -0.54875,0.29932 -0.29931,0.29931 -0.57369,0.77323 -0.0998,0.34921 -0.37414,0.7483 -0.249432,0.37414 -0.249432,0.49886 -0.174601,0.12471 -0.299317,0.29932 -0.09977,0.1746 -0.09977,0.1746 0,0.14966 -0.249431,0.74829 -0.224488,0.57369 -0.573692,1.29704 -0.349203,0.69841 -0.698406,1.22221 l -0.523806,0.79818 z m 5.163219,-8.03168 q 0,0 0.24943,-0.0499 0.27438,-0.0499 0.62358,-0.0998 0.37415,-0.0748 0.67346,-0.0748 1.04761,-0.24943 1.52153,-0.32426 0.47392,-0.0998 0.64852,-0.0998 0.19955,0 0.34921,0.0748 0.0998,0.12471 0.1746,0.14965 0.0998,0.0249 0.0998,0.0249 0.0249,-0.0499 0.0748,-0.57369 0.0499,-0.52381 0.12472,-1.29704 0.0998,-0.77324 0.1746,-1.59636 0.0998,-0.84807 0.14966,-1.54648 0.0499,-0.72335 0.0748,-1.09749 0.0249,-0.47392 0.0499,-0.84807 0.025,-0.39909 0.025,-0.39909 -0.14966,0 -0.64852,0.54875 -0.47392,0.54875 -1.07256,1.4467 -0.59863,0.89795 -1.12244,1.92062 -0.24943,0.47392 -0.47392,0.84807 -0.22448,0.37414 -0.3492,0.37414 -0.0499,0.0499 -0.29932,0.44898 -0.22449,0.37414 -0.49886,0.87301 -0.27437,0.47392 -0.44898,0.873 -0.1746,0.37415 -0.0998,0.42404 z"
         style="font-style:normal;font-variant:normal;font-weight:normal;font-stretch:normal;font-size:24.9431px;font-family:Caveat;-inkscape-font-specification:Caveat;fill:#314559;fill-opacity:1;stroke-width:0.233843"
         id="path1463" />
      <path
         d="m 112.33275,257.90214 q -0.19955,-0.24943 -0.82312,-0.29931 -0.59864,-0.0499 -1.47165,0.0249 -0.3492,0.0499 -0.67346,-0.0249 -0.32426,-0.0748 -0.52381,-0.24943 -0.19954,-0.17461 -0.14965,-0.39909 0.0249,-0.29932 0.49886,-0.47392 0.47392,-0.19955 1.54647,-0.24943 l 1.32198,-0.0748 0.24944,-0.52381 q 0.0748,-0.27437 0.19954,-0.77323 0.14966,-0.49887 0.29932,-1.07256 0.0998,-0.3492 0.29931,-1.02266 0.22449,-0.69841 0.47392,-1.47165 0.24943,-0.77323 0.44898,-1.39681 0.19954,-0.62358 0.22449,-0.84807 0.0998,-0.22448 0.27437,-0.82312 0.1746,-0.59863 0.3492,-1.22221 0.17461,-0.64852 0.22449,-0.89795 0.57369,-1.99545 0.7483,-2.84352 0.1746,-0.84806 0.0748,-0.84806 -0.0998,0 -0.49886,0.0249 -0.37414,0.0249 -0.84806,0.0998 -0.44898,0.0499 -0.82312,0.12472 -0.34921,0.0499 -0.39909,0.0998 -0.12472,0.1746 -0.42404,0.0998 -0.29931,-0.0998 -0.39909,-0.3492 -0.0249,-0.22449 -0.0249,-0.3492 0.0249,-0.12472 0.12472,-0.19955 0.1746,-0.14966 0.64852,-0.3492 0.49886,-0.19955 1.12244,-0.37415 0.64852,-0.1746 1.22221,-0.27437 0.42403,-0.0499 0.84806,-0.19955 0.42404,-0.1746 0.64852,-0.37414 0.22449,-0.0998 0.42404,-0.14966 0.22448,-0.0499 0.44897,-0.0249 0.19955,0.0998 0.67347,0.0998 0.49886,-0.0249 1.04761,-0.0748 1.39681,-0.1746 1.89567,-0.12472 0.49886,0.025 0.67347,0.37415 0.12471,0.44898 0.0499,0.72335 -0.0499,0.27437 -0.47392,0.24943 -0.22449,0.0748 -0.82312,0.12472 -0.57369,0.0499 -1.22221,0.0998 -0.84807,0.0998 -1.34693,0.22449 -0.47392,0.0998 -0.5238,0.19954 -0.0998,0.0998 -0.17461,0.19955 -0.0499,0.0998 -0.14965,0.22448 0.0499,0.0998 -0.0748,0.64852 -0.12472,0.52381 -0.29932,1.0975 -0.0998,0.32426 -0.29932,0.97278 -0.19954,0.62358 -0.42403,1.32199 -0.19955,0.6984 -0.37415,1.27209 -0.1746,0.54875 -0.24943,0.72335 -0.0748,0.22449 -0.14966,0.49887 -0.0499,0.24943 -0.0499,0.37414 -0.39909,1.6213 -0.7483,2.76869 -0.3492,1.12244 -0.64852,2.02039 -0.27437,0.89795 -0.49886,1.82084 0,0 0.37415,-0.0249 0.39909,-0.0499 1.04761,-0.14966 0.87301,-0.12471 1.37187,-0.1746 0.49886,-0.0499 0.74829,-0.0249 0.24943,0 0.32426,0.0998 0.0998,0.0748 0.1746,0.24943 0.52381,0.64852 0.14966,0.89795 -0.3492,0.24943 -1.74601,0.29932 -1.29705,0.0998 -1.99545,0.14966 -0.67347,0.0748 -0.94784,0.14966 -0.24943,0.0748 -0.27437,0.24943 0,0.12471 -0.0998,0.1746 -0.0748,0.0748 -0.24943,0.0499 -0.14966,-0.0249 -0.3492,-0.0998 z"
         style="font-style:normal;font-variant:normal;font-weight:normal;font-stretch:normal;font-size:24.9431px;font-family:Caveat;-inkscape-font-specification:Caveat;fill:#314559;fill-opacity:1;stroke-width:0.233843"
         id="path1465" />
      <path
         d="m 128.19652,256.35567 q -0.27438,-0.0499 -0.57369,-0.27437 -0.27438,-0.24943 -0.49887,-0.54875 -0.19954,-0.32426 -0.27437,-0.57369 0,-0.0499 -0.0748,-0.12472 -0.0499,-0.0748 -0.0499,-0.0748 -0.0998,-0.0748 -0.12471,-0.64852 0,-0.59863 0.0748,-1.32198 0.0748,-0.72335 0.1746,-1.14738 0.12472,-0.39909 0.37415,-1.07256 0.24943,-0.6984 0.42403,-1.24715 l 0.67346,-1.4467 -0.99772,-0.27438 q -0.1746,-0.0499 -0.29932,-0.19954 -0.0998,-0.14966 -0.0998,-0.24943 0,-0.19955 0.22449,-0.47392 0.22449,-0.29932 0.32426,-0.29932 0.12471,0.0249 0.44897,0.0249 0.34921,0 0.67347,-0.0249 0.32426,-0.0249 0.39909,-0.0499 0.0998,-0.0499 0.19954,-0.12472 0.0998,-0.0998 0.14966,-0.27437 0.12472,-0.27438 0.22449,-0.49887 0.0998,-0.24943 0.27437,-0.54874 0.1746,-0.32426 0.27438,-0.54875 0.12471,-0.22449 0.37414,-0.62358 0.12472,-0.1746 0.27438,-0.42403 0.14966,-0.24943 0.37414,-0.42404 0.22449,-0.19954 0.44898,-0.1746 0.24943,0 0.62358,0.32426 0.19954,0.24943 0.22448,0.37415 0.025,0.12472 -0.19954,0.47392 -0.19954,0.42403 -0.47392,0.84806 -0.24943,0.42404 -0.47392,0.84807 -0.39909,0.54875 -0.14966,0.62358 0.24943,0.0748 1.39682,-0.0998 0.72335,-0.12471 1.04761,0.0748 0.32426,0.17461 0.37414,0.59864 0.0748,0.59863 -0.12471,0.72335 -0.19955,0.12471 -1.14738,0.12471 -0.59864,0.0998 -1.02267,0.12472 -0.42403,0 -0.62358,0 -0.32426,0.0249 -0.42403,0.0249 -0.0998,0 -0.29932,0.0499 -0.19954,0.0499 -0.29932,0.1746 -0.0748,0.0998 -0.1746,0.29932 -0.0998,0.0998 -0.29931,0.5238 -0.19955,0.42404 -0.49887,0.9229 -0.3492,1.04761 -0.59863,2.09522 -0.24943,1.02266 -0.39909,1.99545 -0.0998,0.62357 0.0249,0.873 0.12472,0.22449 0.64852,0.27438 0.27438,0.0249 0.87301,0 0.62358,-0.0499 0.97278,-0.14966 0.27438,-0.12472 0.57369,-0.24943 0.29932,-0.14966 0.54875,-0.29932 0.22449,-0.12471 0.44898,-0.24943 0.22449,-0.14966 0.22449,-0.14966 0.12471,-0.19954 0.27437,-0.12471 0.14966,0.0748 0.24943,0.37414 0,0.29932 -0.12472,0.62358 -0.12471,0.32426 -0.92289,0.77324 -1.12244,0.6984 -2.07028,0.84806 -0.92289,0.12472 -1.57141,0 z"
         style="font-style:normal;font-variant:normal;font-weight:normal;font-stretch:normal;font-size:24.9431px;font-family:Caveat;-inkscape-font-specification:Caveat;fill:#314559;fill-opacity:1;stroke-width:0.233843"
         id="path1467" />
      <path
         d="m 136.00369,255.75704 q -0.0748,0.0249 -0.24943,-0.0249 -0.1746,-0.0499 -0.3492,-0.12471 -0.1746,-0.0748 -0.22449,-0.12472 -0.0998,-0.0998 -0.19955,-0.29931 -0.0748,-0.19955 0,-0.5737 0.0748,-0.39908 0.49887,-1.02266 0.12471,-0.24943 0.29931,-0.7483 0.1746,-0.49886 0.34921,-1.04761 0.19954,-0.57369 0.3492,-1.02266 0.1746,-0.44898 0.24943,-0.62358 0.0499,-0.42403 -0.0499,-0.59863 -0.0748,-0.19955 -0.42403,-0.22449 -0.24943,0 -0.39909,-0.0499 -0.12471,-0.0499 -0.12471,-0.49886 0.0499,-0.3492 0.1746,-0.47392 0.14966,-0.14966 0.39909,-0.32426 0.24943,-0.12472 0.49886,-0.1746 0.27437,-0.0499 0.52381,-0.0249 0.24943,0.0249 0.39909,0.1746 0.1746,0.0998 0.22448,0.44897 0.0499,0.32426 0.0499,0.67347 0.0249,0.3492 0.0499,0.5238 0.24943,-0.19954 0.67346,-0.54875 0.44897,-0.37414 0.77324,-0.6984 0.39908,-0.27438 0.94783,-0.54875 0.54875,-0.29932 0.79818,-0.29932 0.27438,0 0.54875,0.14966 0.27437,0.12472 0.37415,0.32426 0.24943,0.42403 0.22448,0.74829 0,0.32426 -0.27437,0.67347 -0.24943,0.32426 -0.62358,0.44897 -0.3492,0.12472 -0.44897,0.12472 -0.14966,0 -0.37415,-0.22449 -0.22449,-0.22449 -0.24943,-0.37415 0,-0.0748 -0.32426,0.14966 -0.29932,0.19955 -0.67346,0.52381 -0.37415,0.29931 -0.62358,0.54875 -0.42403,0.5238 -0.89795,1.42175 -0.47392,0.89795 -1.12244,2.17005 -0.29932,0.62358 -0.42404,1.07256 -0.12471,0.42403 -0.3492,0.49886 z"
         style="font-style:normal;font-variant:normal;font-weight:normal;font-stretch:normal;font-size:24.9431px;font-family:Caveat;-inkscape-font-specification:Caveat;fill:#314559;fill-opacity:1;stroke-width:0.233843"
         id="path1469" />
      <path
         d="m 149.42305,256.48039 q -0.24943,-0.24943 -0.49886,-0.67347 -0.24944,-0.44897 -0.39909,-1.02266 -0.0499,-0.19955 -0.0499,-0.54875 0.0249,-0.34921 0,-0.49886 -0.0748,0.1746 -0.24943,0.37414 -0.14966,0.1746 -0.29932,0.29932 -0.0998,0.0998 -0.44897,0.39909 -0.34921,0.27437 -0.69841,0.44898 -0.82312,0.5238 -1.37187,0.57369 -0.52381,0.0499 -0.99773,-0.54875 -0.39909,-0.32426 -0.57369,-0.72335 -0.14966,-0.39909 0,-1.0975 0.0499,-0.87301 0.24943,-1.69613 0.19955,-0.84806 0.82313,-2.24488 0.5238,-1.02266 0.79818,-1.49658 0.27437,-0.49887 0.3492,-0.59864 0.37415,-0.12471 0.62358,0.0249 0.24943,0.12471 0.29931,0.47391 0.14966,0.24943 -0.0499,0.84807 -0.1746,0.59863 -0.62358,1.47164 -0.3492,0.84807 -0.64852,1.69613 -0.27437,0.84807 -0.32426,1.4467 -0.0499,0.59864 0.29932,0.72335 0.22448,0.12472 0.77323,-0.0748 0.57369,-0.19954 1.2721,-0.99772 0.72335,-0.79818 1.39681,-2.41948 0.19955,-0.49886 0.29932,-0.87301 0.0998,-0.39909 0.12472,-0.87301 -0.0499,-0.29932 0.0249,-0.5238 0.0998,-0.24943 0.39909,-0.42404 0.0998,-0.12471 0.27437,-0.22448 0.17461,-0.12472 0.22449,0 l 0.39909,-0.025 q 0.0998,-0.0249 0.12472,0.12472 0.0499,0.12471 0.1746,0.22449 0.27437,0.22448 0.14966,0.97278 -0.12472,0.74829 -0.69841,2.09522 -0.47392,1.02266 -0.64852,1.54647 -0.14966,0.5238 -0.1746,1.02267 0,0.44897 0.1746,0.84806 0.1746,0.39909 0.54875,0.72335 0.27437,0.1746 0.29931,0.39909 0.0499,0.22449 0.0249,0.52381 -0.0499,0.22448 -0.29932,0.37414 -0.22449,0.12472 -0.5238,0.12472 -0.29932,0 -0.54875,-0.1746 z"
         style="font-style:normal;font-variant:normal;font-weight:normal;font-stretch:normal;font-size:24.9431px;font-family:Caveat;-inkscape-font-specification:Caveat;fill:#314559;fill-opacity:1;stroke-width:0.233843"
         id="path1471" />
      <path
         d="m 154.98533,256.18107 q -1.24715,0 -1.82084,-0.89795 -0.17461,-0.24943 -0.17461,-0.49886 0.0249,-0.27438 0.14966,-0.37415 0.14966,-0.0998 0.34921,0.1746 0.3492,0.19955 0.99772,0.19955 0.32426,0 0.67346,-0.0499 0.34921,-0.0748 0.69841,-0.19954 0.37415,-0.17461 0.49886,-0.29932 0.12472,-0.14966 -0.0499,-0.24943 h 0.0249 q -0.64852,-0.1746 -1.32199,-0.54875 -0.64852,-0.39909 -1.12243,-0.84807 -0.47392,-0.47392 -0.54875,-0.84806 -0.19955,-0.77324 0.0998,-1.57142 0.29932,-0.82312 0.84807,-1.4467 0.19954,-0.12471 0.49886,-0.29931 0.29931,-0.19955 0.47392,-0.22449 v 0.0249 q 0.47391,-0.49886 1.14738,-0.79818 0.69841,-0.29932 1.47164,-0.54875 l 0.37415,-0.0499 q 0.29932,-0.0499 0.49886,-0.0499 -0.0249,0 0.0998,0.0499 0.12472,0.0249 0.22449,0.0499 0.14966,0.0748 0.24943,0.0748 0.32426,0.0499 0.59864,0.29932 0.27437,0.24943 0.42403,0.59863 0.1746,0.32426 0.12471,0.62358 -0.0499,0.47392 -0.29931,0.84807 -0.22449,0.37414 -0.54875,0.42403 0.0499,-0.0249 -0.0748,-0.0748 -0.0998,-0.0748 -0.22449,-0.14966 l -0.0748,0.0499 q 0,0 -0.0249,-0.0499 0,-0.0748 -0.0499,-0.1746 -0.0748,-0.14966 -0.0748,-0.32426 0,-0.19954 0.0249,-0.42403 0.0499,-0.27438 0,-0.32426 -0.0249,-0.0499 -0.32426,-0.0748 -0.34921,-0.0748 -1.02267,0.12471 -0.64852,0.19955 -1.0975,0.54875 -0.54875,0.34921 -0.92289,0.67347 -0.37415,0.29931 -0.59864,0.59863 -0.22448,0.27437 -0.39909,0.64852 -0.12471,0.1746 -0.22448,0.3492 -0.0748,0.14966 -0.0748,0.27438 0,0.27437 0.39909,0.57369 0.42403,0.27437 1.24715,0.64852 0.64852,0.27437 1.0975,0.59863 0.44897,0.32426 0.62358,0.7483 0.0499,0.0998 0.0249,0.24943 0,0.12471 -0.0499,0.1746 0.0499,0.0499 0.0499,0.0748 V 254.46 q 0.19954,0.29931 0,0.62357 -0.1746,0.32426 -0.62358,0.57369 -0.42403,0.22449 -1.04761,0.34921 h 0.0249 q -0.32426,0.0998 -0.64852,0.14966 -0.29931,0.0249 -0.57369,0.0249 z"
         style="font-style:normal;font-variant:normal;font-weight:normal;font-stretch:normal;font-size:24.9431px;font-family:Caveat;-inkscape-font-specification:Caveat;fill:#314559;fill-opacity:1;stroke-width:0.233843"
         id="path1473" />
      <path
         d="m 163.16666,256.35567 q -0.27437,-0.0499 -0.57369,-0.27437 -0.27437,-0.24943 -0.49886,-0.54875 -0.19954,-0.32426 -0.27437,-0.57369 0,-0.0499 -0.0748,-0.12472 -0.0499,-0.0748 -0.0499,-0.0748 -0.0998,-0.0748 -0.12471,-0.64852 0,-0.59863 0.0748,-1.32198 0.0748,-0.72335 0.17461,-1.14738 0.12471,-0.39909 0.37414,-1.07256 0.24943,-0.6984 0.42404,-1.24715 l 0.67346,-1.4467 -0.99772,-0.27438 q -0.17461,-0.0499 -0.29932,-0.19954 -0.0998,-0.14966 -0.0998,-0.24943 0,-0.19955 0.22448,-0.47392 0.22449,-0.29932 0.32426,-0.29932 0.12472,0.0249 0.44898,0.0249 0.3492,0 0.67346,-0.0249 0.32426,-0.0249 0.39909,-0.0499 0.0998,-0.0499 0.19955,-0.12472 0.0998,-0.0998 0.14966,-0.27437 0.12471,-0.27438 0.22448,-0.49887 0.0998,-0.24943 0.27438,-0.54874 0.1746,-0.32426 0.27437,-0.54875 0.12472,-0.22449 0.37415,-0.62358 0.12471,-0.1746 0.27437,-0.42403 0.14966,-0.24943 0.37415,-0.42404 0.22449,-0.19954 0.44898,-0.1746 0.24943,0 0.62357,0.32426 0.19955,0.24943 0.22449,0.37415 0.0249,0.12472 -0.19954,0.47392 -0.19955,0.42403 -0.47392,0.84806 -0.24943,0.42404 -0.47392,0.84807 -0.39909,0.54875 -0.14966,0.62358 0.24943,0.0748 1.39681,-0.0998 0.72335,-0.12471 1.04761,0.0748 0.32426,0.17461 0.37415,0.59864 0.0748,0.59863 -0.12472,0.72335 -0.19954,0.12471 -1.14738,0.12471 -0.59863,0.0998 -1.02267,0.12472 -0.42403,0 -0.62357,0 -0.32426,0.0249 -0.42404,0.0249 -0.0998,0 -0.29931,0.0499 -0.19955,0.0499 -0.29932,0.1746 -0.0748,0.0998 -0.1746,0.29932 -0.0998,0.0998 -0.29932,0.5238 -0.19954,0.42404 -0.49886,0.9229 -0.3492,1.04761 -0.59864,2.09522 -0.24943,1.02266 -0.39908,1.99545 -0.0998,0.62357 0.0249,0.873 0.12471,0.22449 0.64852,0.27438 0.27437,0.0249 0.87301,0 0.62357,-0.0499 0.97278,-0.14966 0.27437,-0.12472 0.57369,-0.24943 0.29932,-0.14966 0.54875,-0.29932 0.22449,-0.12471 0.44897,-0.24943 0.22449,-0.14966 0.22449,-0.14966 0.12472,-0.19954 0.27438,-0.12471 0.14965,0.0748 0.24943,0.37414 0,0.29932 -0.12472,0.62358 -0.12471,0.32426 -0.92289,0.77324 -1.12244,0.6984 -2.07028,0.84806 -0.9229,0.12472 -1.57142,0 z"
         style="font-style:normal;font-variant:normal;font-weight:normal;font-stretch:normal;font-size:24.9431px;font-family:Caveat;-inkscape-font-specification:Caveat;fill:#314559;fill-opacity:1;stroke-width:0.233843"
         id="path1475" />
    </g>
    <g
       aria-label="AIdealist"
       transform="matrix(1.0000789,0,0,0.99992113,-0.53453439,-44.69025)"
       id="text857"
       style="font-style:normal;font-variant:normal;font-weight:normal;font-stretch:normal;font-size:31.179px;line-height:1.25;font-family:'Unica One';-inkscape-font-specification:'Unica One';fill:#314559;fill-opacity:1;stroke:none;stroke-width:0.233843">
      <path
         d="m 42.742312,213.58712 h 3.273795 l 4.583313,20.26635 h -2.18253 l -1.060086,-4.67685 h -5.955189 l -1.060086,4.67685 h -2.18253 z m 1.621308,2.43196 -2.556678,11.2868 h 5.113356 z"
         style="font-style:normal;font-variant:normal;font-weight:normal;font-stretch:normal;font-size:31.179px;font-family:'Unica One';-inkscape-font-specification:'Unica One';fill:#314559;fill-opacity:1;stroke-width:0.233843"
         id="path1432" />
      <path
         d="m 59.329483,231.98273 v 1.87074 h -5.30043 v -1.87074 h 1.55895 v -16.52487 h -1.55895 v -1.87074 h 5.30043 v 1.87074 h -1.55895 v 16.52487 z"
         style="font-style:normal;font-variant:normal;font-weight:normal;font-stretch:normal;font-size:31.179px;font-family:'Unica One';-inkscape-font-specification:'Unica One';fill:#314559;fill-opacity:1;stroke-width:0.233843"
         id="path1434" />
      <path
         d="m 69.649716,233.85347 h -5.019819 v -20.26635 h 5.019819 q 2.431963,0 3.679123,1.15362 1.278339,1.15363 1.278339,3.21144 v 11.53623 q 0,2.08899 -1.24716,3.24262 -1.24716,1.12244 -3.710302,1.12244 z m 2.774932,-4.36506 v -11.53623 q 0,-1.1848 -0.717117,-1.83956 -0.717118,-0.65476 -2.057815,-0.65476 h -2.837289 v 16.52487 h 2.837289 q 2.774932,0 2.774932,-2.49432 z"
         style="font-style:normal;font-variant:normal;font-weight:normal;font-stretch:normal;font-size:31.179px;font-family:'Unica One';-inkscape-font-specification:'Unica One';fill:#314559;fill-opacity:1;stroke-width:0.233843"
         id="path1436" />
      <path
         d="m 88.014121,229.95609 v -1.71484 h 2.182531 v 1.71484 q 0,2.089 -1.27834,3.24262 -1.278339,1.12244 -3.835017,1.12244 -2.556678,0 -3.866196,-1.12244 -1.309518,-1.15362 -1.309518,-3.24262 v -12.4716 q 0,-2.08899 1.278339,-3.21143 1.278339,-1.15363 3.835017,-1.15363 2.556678,0 3.866196,1.15363 1.309519,1.12244 1.309519,3.21143 v 6.85938 h -8.106541 v 5.61222 q 0,2.49432 2.962005,2.49432 2.962005,0 2.962005,-2.49432 z m -5.92401,-12.4716 v 4.98864 h 5.92401 v -4.98864 q 0,-2.49432 -2.962005,-2.49432 -2.962005,0 -2.962005,2.49432 z"
         style="font-style:normal;font-variant:normal;font-weight:normal;font-stretch:normal;font-size:31.179px;font-family:'Unica One';-inkscape-font-specification:'Unica One';fill:#314559;fill-opacity:1;stroke-width:0.233843"
         id="path1438" />
      <path
         d="m 105.6302,233.85347 h -0.93537 l -0.81066,-1.99546 q -0.65476,1.12245 -1.71484,1.80839 -1.06009,0.65475 -2.338428,0.65475 -4.489776,0 -4.489776,-4.36506 v -3.1179 q 0,-4.36506 4.489776,-4.36506 h 3.616768 v -5.11335 q 0,-1.12245 -0.71712,-1.74603 -0.71712,-0.62358 -2.12017,-0.62358 -2.774934,0 -2.774934,2.36961 v 1.83956 h -2.18253 v -1.71485 q 0,-2.08899 1.215981,-3.21143 1.24716,-1.15363 3.741483,-1.15363 2.49432,0 3.74148,1.15363 1.27834,1.12244 1.27834,3.21143 z m -2.18253,-9.5096 h -3.616768 q -1.309518,0 -1.808382,0.65476 -0.498864,0.65476 -0.498864,1.83956 v 3.1179 q 0,1.18481 0.498864,1.83957 0.498864,0.65475 1.808382,0.65475 1.309518,0 2.431958,-0.99772 1.12245,-1.02891 1.18481,-2.02664 z"
         style="font-style:normal;font-variant:normal;font-weight:normal;font-stretch:normal;font-size:31.179px;font-family:'Unica One';-inkscape-font-specification:'Unica One';fill:#314559;fill-opacity:1;stroke-width:0.233843"
         id="path1440" />
      <path
         d="m 111.55415,233.85347 v -20.26635 h 2.18253 v 18.39561 h 5.70576 v 1.87074 z"
         style="font-style:normal;font-variant:normal;font-weight:normal;font-stretch:normal;font-size:31.179px;font-family:'Unica One';-inkscape-font-specification:'Unica One';fill:#314559;fill-opacity:1;stroke-width:0.233843"
         id="path1442" />
      <path
         d="m 125.36642,233.85347 h -2.18253 v -20.26635 h 2.18253 z"
         style="font-style:normal;font-variant:normal;font-weight:normal;font-stretch:normal;font-size:31.179px;font-family:'Unica One';-inkscape-font-specification:'Unica One';fill:#314559;fill-opacity:1;stroke-width:0.233843"
         id="path1444" />
      <path
         d="m 141.51709,229.95609 q 0,4.36506 -5.26925,4.36506 -5.26925,0 -5.26925,-4.36506 v -2.65021 h 2.18253 v 2.77493 q 0,1.12244 0.77948,1.74602 0.77947,0.62358 2.30724,0.62358 1.52777,0 2.30725,-0.62358 0.77947,-0.62358 0.77947,-1.68366 0,-1.09127 -0.24943,-1.71485 -0.21825,-0.65476 -0.93537,-1.37187 l -5.4875,-5.36279 q -0.96655,-0.96655 -1.3407,-1.87074 -0.34297,-0.93537 -0.34297,-2.33843 0,-2.08899 1.27834,-3.21143 1.30952,-1.15363 3.92856,-1.15363 5.01981,0 5.01981,4.36506 v 2.65022 h -2.18253 v -2.77493 q 0,-1.12245 -0.74829,-1.74603 -0.71712,-0.62358 -2.18253,-0.62358 -1.46541,0 -2.21371,0.62358 -0.71712,0.62358 -0.71712,1.71485 0,1.09126 0.21826,1.71484 0.21825,0.62358 0.96654,1.30952 l 5.58105,5.36279 q 0.90419,0.99773 1.24716,1.9331 0.34296,0.90419 0.34296,2.30724 z"
         style="font-style:normal;font-variant:normal;font-weight:normal;font-stretch:normal;font-size:31.179px;font-family:'Unica One';-inkscape-font-specification:'Unica One';fill:#314559;fill-opacity:1;stroke-width:0.233843"
         id="path1446" />
      <path
         d="m 146.66161,213.58712 h 6.85938 v 1.87074 h -4.67685 v 14.93474 q 0,0.87301 0.43651,1.46541 0.46768,0.5924 1.27833,0.5924 0.84184,0 1.27834,-0.56122 0.43651,-0.5924 0.43651,-1.49659 v -3.7103 h 2.18253 v 3.58558 q 0,1.96428 -1.06009,3.02437 -1.0289,1.0289 -2.80611,1.0289 -1.7772,0 -2.86846,-1.0289 -1.06009,-1.06009 -1.06009,-3.02437 z"
         style="font-style:normal;font-variant:normal;font-weight:normal;font-stretch:normal;font-size:31.179px;font-family:'Unica One';-inkscape-font-specification:'Unica One';fill:#314559;fill-opacity:1;stroke-width:0.233843"
         id="path1448" />
    </g>
    <g
       aria-label="Ai"
       transform="matrix(1.0000789,0,0,0.99992113,-0.53453439,-44.69025)"
       id="text12"
       style="font-style:normal;font-variant:normal;font-weight:normal;font-stretch:normal;font-size:68.5938px;line-height:1.25;font-family:acroscript;-inkscape-font-specification:acroscript;fill:#f4e49c;fill-opacity:1;stroke:none;stroke-width:0.233843">
      <path
         d="m 73.59244,116.6986 q 6.933066,-5.82779 14.033596,-6.93307 7.134024,-1.13876 15.507294,1.97609 2.21054,0.83733 5.02396,2.14356 0.9378,0.33493 1.80862,0.83733 1.20575,0.56938 2.37801,1.13876 1.20575,0.53589 2.4115,1.03829 2.14356,0.9378 4.58855,1.70814 2.47849,0.77034 4.88999,0.53589 2.9139,-0.20096 5.55985,-2.44499 l 2.74643,3.28232 q -3.61725,3.04787 -7.93786,3.41629 -3.01437,0.26795 -5.92827,-0.56938 -2.9139,-0.83733 -5.59334,-2.00958 -0.63637,-0.26795 -1.27274,-0.53589 -0.63637,-0.26795 -1.23924,-0.56939 l -6.86608,44.37832 q 0,0 0,0 0,0 0,0 l -4.186635,-0.66986 q 0.03349,-0.40192 0.100479,-0.83733 0.06699,-0.43541 0.10048,-0.90431 0.468906,-6.2632 -2.110064,-11.65559 -1.004792,-2.07657 -2.612459,-3.95218 -1.607667,-1.90911 -3.81821,-2.67945 -1.172257,-0.40191 -2.344515,-0.40191 v -4.25362 q 1.942598,0 3.717731,0.63637 3.081362,1.07177 5.291905,3.51677 2.244038,2.4115 3.617248,5.2919 0.067,0.20096 0.13398,0.36843 0.067,0.13397 0.16746,0.30143 l 4.78951,-30.98108 q -0.56938,-0.13398 -1.13876,-0.10048 -1.54069,0.20096 -2.9139,1.4402 -1.37322,1.23924 -2.27753,2.37801 l -30.880609,39.01942 q -3.114855,4.01917 -8.40676,4.75602 -5.291905,0.70335 -9.378059,-2.4115 -4.521564,-3.44979 -4.320606,-9.51204 0.200958,-4.823 4.119647,-8.57422 3.885196,-3.75122 8.909156,-2.84691 2.712939,0.50239 4.454578,2.34451 1.775133,1.84212 1.775133,4.65554 0,3.8517 -2.846911,5.96177 -2.980883,2.24403 -6.698613,0.63636 l 1.674653,-3.88519 q 1.507188,0.60287 2.444994,-0.13397 1.172257,-0.83733 1.20575,-2.47849 0.10048,-2.37801 -2.779924,-2.94739 -3.114855,-0.53589 -5.492863,2.00958 -2.411501,2.51198 -2.51198,5.42588 -0.200959,6.06225 5.526356,7.33498 5.727314,1.27274 9.009635,-2.94739 l 30.880609,-39.05292 q 1.775132,-2.27752 3.684234,-3.58375 -6.933062,-2.37801 -12.693869,-1.30623 -5.727315,1.03828 -11.555109,5.92827 z"
         style="font-style:normal;font-variant:normal;font-weight:normal;font-stretch:normal;font-size:68.5938px;font-family:acroscript;-inkscape-font-specification:acroscript;fill:#f4e49c;fill-opacity:1;stroke-width:0.233843"
         id="path1427" />
      <path
         d="m 127.14786,121.38763 q 1.67465,0 2.84691,1.20575 1.20575,1.20575 1.20575,2.84691 0,1.70815 -1.20575,2.9139 -1.17226,1.17225 -2.84691,1.17225 -1.70815,0 -2.88041,-1.17225 -1.17225,-1.20575 -1.17225,-2.9139 0,-1.64116 1.17225,-2.84691 1.17226,-1.20575 2.88041,-1.20575 z m 11.89004,27.46431 q -1.90911,3.61726 -4.62205,7.23451 -2.71294,3.58376 -6.02875,5.92827 -1.50719,1.07178 -2.8804,1.60767 -1.74164,0.73684 -3.61725,0.83732 -1.84212,0.067 -3.44979,-1.03828 -2.51198,-1.74164 -2.61246,-4.88999 -0.10048,-3.14835 0.70335,-5.76081 l 6.02876,-19.62693 4.05266,1.23924 -6.02875,19.62694 q -0.13398,0.40191 -0.33494,1.20575 -0.13397,0.56938 -0.23445,1.54068 -0.067,0.73685 0.0335,1.74164 0.10048,0.9713 0.80383,1.40671 0.60288,0.43541 1.4402,0.30143 0.83733,-0.16746 1.4737,-0.4689 1.07178,-0.43541 2.17705,-1.20575 1.57417,-1.10527 2.91389,-2.54547 1.37322,-1.4737 2.54548,-3.04787 2.47848,-3.41629 3.95218,-6.22971 z"
         style="font-style:normal;font-variant:normal;font-weight:normal;font-stretch:normal;font-size:68.5938px;font-family:acroscript;-inkscape-font-specification:acroscript;fill:#f4e49c;fill-opacity:1;stroke-width:0.233843"
         id="path1429" />
    </g>
    <ellipse
       style="fill:none;fill-opacity:1;stroke:#f4e49c;stroke-width:1.76582;stroke-miterlimit:4;stroke-dasharray:0, 1.76582, 3.53162, 5.29745, 7.06326, 8.82907, 10.595, 12.3607, 14.1265, 15.8923, 17.6582, 19.424, 21.1897, 22.9556, 24.7214;stroke-dashoffset:0;stroke-opacity:1"
       id="path889"
       cx="92.604187"
       cy="92.776047"
       rx="61.691013"
       ry="61.690918" />
  </g>
</svg>
